<?xml version="1.0" encoding="UTF-8"?>
<svg xmlns="http://www.w3.org/2000/svg" xmlns:xlink="http://www.w3.org/1999/xlink" width="1920" height="1080" viewBox="0 0 1920 1080">
<defs>
<g>
<g id="glyph-0-0">
<path d="M 3.820312 -0.0664062 C 3.703125 -0.0234375 3.597656 0.0078125 3.507812 0.0351562 C 3.417969 0.0625 3.316406 0.0742188 3.203125 0.0742188 C 3.003906 0.0742188 2.847656 0.03125 2.730469 -0.0625 C 2.609375 -0.15625 2.535156 -0.289062 2.503906 -0.46875 L 2.480469 -0.46875 C 2.316406 -0.285156 2.136719 -0.144531 1.949219 -0.0507812 C 1.761719 0.046875 1.535156 0.09375 1.269531 0.09375 C 0.988281 0.09375 0.757812 0.0078125 0.574219 -0.164062 C 0.394531 -0.335938 0.304688 -0.5625 0.304688 -0.839844 C 0.304688 -0.984375 0.324219 -1.113281 0.363281 -1.226562 C 0.40625 -1.339844 0.464844 -1.441406 0.546875 -1.535156 C 0.609375 -1.609375 0.695312 -1.679688 0.796875 -1.738281 C 0.902344 -1.796875 1 -1.84375 1.089844 -1.878906 C 1.203125 -1.921875 1.433594 -2.003906 1.78125 -2.117188 C 2.132812 -2.234375 2.367188 -2.328125 2.488281 -2.390625 L 2.488281 -2.769531 C 2.488281 -2.800781 2.480469 -2.863281 2.464844 -2.957031 C 2.453125 -3.050781 2.421875 -3.140625 2.378906 -3.222656 C 2.328125 -3.316406 2.253906 -3.398438 2.164062 -3.46875 C 2.070312 -3.539062 1.9375 -3.574219 1.769531 -3.574219 C 1.652344 -3.574219 1.546875 -3.554688 1.445312 -3.515625 C 1.34375 -3.476562 1.273438 -3.433594 1.234375 -3.390625 C 1.234375 -3.339844 1.246094 -3.265625 1.269531 -3.167969 C 1.292969 -3.070312 1.304688 -2.976562 1.304688 -2.894531 C 1.304688 -2.804688 1.265625 -2.722656 1.1875 -2.652344 C 1.105469 -2.578125 0.996094 -2.539062 0.855469 -2.539062 C 0.726562 -2.539062 0.636719 -2.585938 0.574219 -2.675781 C 0.515625 -2.765625 0.484375 -2.867188 0.484375 -2.976562 C 0.484375 -3.09375 0.527344 -3.207031 0.609375 -3.3125 C 0.691406 -3.417969 0.796875 -3.511719 0.929688 -3.597656 C 1.042969 -3.667969 1.183594 -3.726562 1.34375 -3.777344 C 1.507812 -3.824219 1.664062 -3.851562 1.820312 -3.851562 C 2.03125 -3.851562 2.21875 -3.835938 2.375 -3.808594 C 2.535156 -3.777344 2.675781 -3.714844 2.804688 -3.617188 C 2.933594 -3.523438 3.035156 -3.398438 3.101562 -3.238281 C 3.167969 -3.078125 3.203125 -2.871094 3.203125 -2.617188 C 3.203125 -2.253906 3.199219 -1.933594 3.191406 -1.652344 C 3.183594 -1.375 3.179688 -1.070312 3.179688 -0.738281 C 3.179688 -0.636719 3.195312 -0.558594 3.230469 -0.5 C 3.265625 -0.441406 3.316406 -0.394531 3.386719 -0.351562 C 3.425781 -0.332031 3.484375 -0.316406 3.566406 -0.316406 C 3.648438 -0.3125 3.734375 -0.3125 3.820312 -0.3125 L 3.820312 -0.0664062 M 2.496094 -2.074219 C 2.28125 -2.011719 2.089844 -1.949219 1.929688 -1.886719 C 1.765625 -1.824219 1.617188 -1.75 1.476562 -1.660156 C 1.351562 -1.574219 1.25 -1.46875 1.175781 -1.351562 C 1.105469 -1.234375 1.066406 -1.09375 1.066406 -0.933594 C 1.066406 -0.722656 1.121094 -0.566406 1.230469 -0.46875 C 1.34375 -0.367188 1.480469 -0.320312 1.652344 -0.320312 C 1.832031 -0.320312 1.988281 -0.363281 2.125 -0.449219 C 2.261719 -0.539062 2.378906 -0.640625 2.472656 -0.761719 Z "/>
</g>
</g>
</defs>
<g fill="rgb(96.078431%, 48.627451%, 0%)" fill-opacity="1">
<use xlink:href="#glyph-0-0" x="30" y="27.131836"/>
</g>
</svg>
