<?xml version="1.0" encoding="UTF-8"?>
<svg xmlns="http://www.w3.org/2000/svg" xmlns:xlink="http://www.w3.org/1999/xlink" width="1920" height="1080" viewBox="0 0 1920 1080">
<defs>
<g>
<g id="glyph-0-0">
<path d="M 4.960938 -4.753906 C 4.902344 -4.75 4.828125 -4.738281 4.738281 -4.714844 C 4.652344 -4.6875 4.582031 -4.660156 4.523438 -4.625 C 4.445312 -4.574219 4.378906 -4.511719 4.332031 -4.433594 C 4.285156 -4.355469 4.238281 -4.265625 4.191406 -4.15625 C 4.03125 -3.785156 3.796875 -3.203125 3.480469 -2.410156 C 3.164062 -1.621094 2.839844 -0.792969 2.507812 0.0625 L 2.214844 0.0625 C 1.875 -0.847656 1.550781 -1.722656 1.234375 -2.566406 C 0.917969 -3.410156 0.707031 -3.980469 0.59375 -4.277344 C 0.5625 -4.351562 0.527344 -4.414062 0.480469 -4.46875 C 0.433594 -4.523438 0.371094 -4.578125 0.292969 -4.628906 C 0.230469 -4.667969 0.160156 -4.695312 0.0820312 -4.71875 C 0.00390625 -4.738281 -0.0664062 -4.75 -0.132812 -4.753906 L -0.132812 -5.003906 L 1.9375 -5.003906 L 1.9375 -4.753906 C 1.761719 -4.746094 1.613281 -4.726562 1.492188 -4.699219 C 1.371094 -4.675781 1.308594 -4.628906 1.308594 -4.5625 C 1.308594 -4.539062 1.3125 -4.507812 1.324219 -4.472656 C 1.332031 -4.4375 1.339844 -4.410156 1.347656 -4.386719 C 1.433594 -4.15625 1.574219 -3.78125 1.769531 -3.261719 C 1.964844 -2.738281 2.242188 -1.996094 2.601562 -1.035156 C 2.78125 -1.46875 2.988281 -1.984375 3.21875 -2.578125 C 3.453125 -3.167969 3.609375 -3.578125 3.691406 -3.796875 C 3.765625 -4.011719 3.8125 -4.160156 3.824219 -4.242188 C 3.839844 -4.324219 3.84375 -4.390625 3.84375 -4.445312 C 3.84375 -4.496094 3.820312 -4.542969 3.773438 -4.578125 C 3.722656 -4.617188 3.660156 -4.648438 3.582031 -4.671875 C 3.503906 -4.695312 3.425781 -4.714844 3.34375 -4.726562 C 3.265625 -4.738281 3.183594 -4.746094 3.101562 -4.753906 L 3.101562 -5.003906 L 4.960938 -5.003906 Z "/>
</g>
<g id="glyph-0-1">
<path d="M 3.691406 0 L 0.386719 0 L 0.386719 -0.480469 C 0.453125 -0.554688 0.539062 -0.636719 0.652344 -0.726562 C 0.765625 -0.816406 0.898438 -0.914062 1.054688 -1.019531 C 1.148438 -1.085938 1.261719 -1.152344 1.394531 -1.230469 C 1.523438 -1.304688 1.675781 -1.386719 1.839844 -1.476562 C 2.027344 -1.574219 2.167969 -1.660156 2.269531 -1.738281 C 2.371094 -1.8125 2.460938 -1.90625 2.542969 -2.015625 C 2.597656 -2.089844 2.640625 -2.179688 2.671875 -2.289062 C 2.707031 -2.398438 2.722656 -2.554688 2.722656 -2.753906 C 2.722656 -3.046875 2.644531 -3.265625 2.484375 -3.402344 C 2.328125 -3.539062 2.125 -3.609375 1.878906 -3.609375 C 1.726562 -3.609375 1.582031 -3.578125 1.445312 -3.519531 C 1.308594 -3.457031 1.207031 -3.375 1.140625 -3.269531 C 1.15625 -3.195312 1.175781 -3.105469 1.199219 -3 C 1.226562 -2.898438 1.238281 -2.796875 1.238281 -2.699219 C 1.238281 -2.609375 1.199219 -2.527344 1.125 -2.460938 C 1.050781 -2.390625 0.941406 -2.355469 0.796875 -2.355469 C 0.679688 -2.355469 0.589844 -2.394531 0.527344 -2.476562 C 0.460938 -2.558594 0.429688 -2.667969 0.429688 -2.804688 C 0.429688 -2.929688 0.464844 -3.058594 0.535156 -3.1875 C 0.605469 -3.316406 0.707031 -3.433594 0.839844 -3.539062 C 0.96875 -3.648438 1.128906 -3.730469 1.320312 -3.796875 C 1.507812 -3.863281 1.714844 -3.898438 1.9375 -3.898438 C 2.417969 -3.898438 2.800781 -3.789062 3.085938 -3.574219 C 3.367188 -3.359375 3.507812 -3.074219 3.507812 -2.714844 C 3.507812 -2.542969 3.484375 -2.386719 3.433594 -2.246094 C 3.382812 -2.105469 3.300781 -1.980469 3.1875 -1.871094 C 3.0625 -1.75 2.917969 -1.648438 2.75 -1.5625 C 2.582031 -1.476562 2.328125 -1.359375 1.984375 -1.207031 C 1.78125 -1.113281 1.589844 -1.019531 1.414062 -0.917969 C 1.238281 -0.820312 1.09375 -0.722656 0.980469 -0.628906 L 3.691406 -0.628906 Z "/>
</g>
</g>
</defs>
<g fill="rgb(55.686275%, 14.117647%, 66.666667%)" fill-opacity="1">
<use xlink:href="#glyph-0-0" x="30" y="26.623047"/>
<use xlink:href="#glyph-0-1" x="35" y="26.623047"/>
</g>
</svg>
