<?xml version="1.0" encoding="UTF-8"?>
<svg xmlns="http://www.w3.org/2000/svg" xmlns:xlink="http://www.w3.org/1999/xlink" width="1920" height="1080" viewBox="0 0 1920 1080">
<defs>
<g>
<g id="glyph-0-0">
<path d="M 4.960938 -4.753906 C 4.902344 -4.75 4.828125 -4.738281 4.738281 -4.714844 C 4.652344 -4.6875 4.582031 -4.660156 4.523438 -4.625 C 4.445312 -4.574219 4.378906 -4.511719 4.332031 -4.433594 C 4.285156 -4.355469 4.238281 -4.265625 4.191406 -4.15625 C 4.03125 -3.785156 3.796875 -3.203125 3.480469 -2.410156 C 3.164062 -1.621094 2.839844 -0.792969 2.507812 0.0625 L 2.214844 0.0625 C 1.875 -0.847656 1.550781 -1.722656 1.234375 -2.566406 C 0.917969 -3.410156 0.707031 -3.980469 0.59375 -4.277344 C 0.5625 -4.351562 0.527344 -4.414062 0.480469 -4.46875 C 0.433594 -4.523438 0.371094 -4.578125 0.292969 -4.628906 C 0.230469 -4.667969 0.160156 -4.695312 0.0820312 -4.71875 C 0.00390625 -4.738281 -0.0664062 -4.75 -0.132812 -4.753906 L -0.132812 -5.003906 L 1.9375 -5.003906 L 1.9375 -4.753906 C 1.761719 -4.746094 1.613281 -4.726562 1.492188 -4.699219 C 1.371094 -4.675781 1.308594 -4.628906 1.308594 -4.5625 C 1.308594 -4.539062 1.3125 -4.507812 1.324219 -4.472656 C 1.332031 -4.4375 1.339844 -4.410156 1.347656 -4.386719 C 1.433594 -4.15625 1.574219 -3.78125 1.769531 -3.261719 C 1.964844 -2.738281 2.242188 -1.996094 2.601562 -1.035156 C 2.78125 -1.46875 2.988281 -1.984375 3.21875 -2.578125 C 3.453125 -3.167969 3.609375 -3.578125 3.691406 -3.796875 C 3.765625 -4.011719 3.8125 -4.160156 3.824219 -4.242188 C 3.839844 -4.324219 3.84375 -4.390625 3.84375 -4.445312 C 3.84375 -4.496094 3.820312 -4.542969 3.773438 -4.578125 C 3.722656 -4.617188 3.660156 -4.648438 3.582031 -4.671875 C 3.503906 -4.695312 3.425781 -4.714844 3.34375 -4.726562 C 3.265625 -4.738281 3.183594 -4.746094 3.101562 -4.753906 L 3.101562 -5.003906 L 4.960938 -5.003906 Z "/>
</g>
<g id="glyph-0-1">
<path d="M 2.851562 0 L 0.476562 0 L 0.476562 -0.25 C 0.546875 -0.253906 0.65625 -0.265625 0.804688 -0.28125 C 0.957031 -0.296875 1.058594 -0.3125 1.113281 -0.328125 C 1.1875 -0.351562 1.242188 -0.390625 1.28125 -0.441406 C 1.320312 -0.496094 1.339844 -0.574219 1.339844 -0.679688 L 1.339844 -3.15625 L 0.460938 -3.15625 L 0.460938 -3.453125 L 0.65625 -3.453125 C 0.910156 -3.453125 1.136719 -3.5 1.339844 -3.59375 C 1.539062 -3.6875 1.683594 -3.789062 1.769531 -3.898438 L 2.0625 -3.898438 C 2.054688 -3.746094 2.050781 -3.566406 2.042969 -3.359375 C 2.035156 -3.15625 2.03125 -2.972656 2.03125 -2.8125 L 2.03125 -0.71875 C 2.03125 -0.636719 2.050781 -0.5625 2.085938 -0.5 C 2.121094 -0.433594 2.175781 -0.386719 2.242188 -0.355469 C 2.304688 -0.332031 2.402344 -0.308594 2.542969 -0.285156 C 2.679688 -0.265625 2.785156 -0.253906 2.851562 -0.25 Z "/>
</g>
</g>
</defs>
<g fill="rgb(11.764706%, 53.333333%, 89.803922%)" fill-opacity="1">
<use xlink:href="#glyph-0-0" x="30" y="26.623047"/>
<use xlink:href="#glyph-0-1" x="35" y="26.623047"/>
</g>
</svg>
