<?xml version="1.0" encoding="UTF-8"?>
<svg xmlns="http://www.w3.org/2000/svg" xmlns:xlink="http://www.w3.org/1999/xlink" width="960" height="540" viewBox="0 0 960 540">
<defs>
<g>
<g id="glyph-0-0">
<path d="M 5.203125 -4.617188 L 4.878906 -4.617188 C 4.816406 -4.847656 4.691406 -5.089844 4.5 -5.351562 C 4.304688 -5.613281 4.121094 -5.753906 3.945312 -5.78125 C 3.855469 -5.792969 3.75 -5.800781 3.625 -5.808594 C 3.503906 -5.8125 3.363281 -5.816406 3.207031 -5.816406 L 2.175781 -5.816406 L 2.175781 -3.34375 L 2.882812 -3.34375 C 3.097656 -3.34375 3.265625 -3.363281 3.382812 -3.410156 C 3.503906 -3.453125 3.605469 -3.523438 3.6875 -3.617188 C 3.746094 -3.679688 3.800781 -3.777344 3.847656 -3.914062 C 3.894531 -4.046875 3.925781 -4.191406 3.941406 -4.34375 L 4.265625 -4.34375 L 4.265625 -1.921875 L 3.941406 -1.921875 C 3.933594 -2.050781 3.902344 -2.195312 3.851562 -2.355469 C 3.800781 -2.519531 3.746094 -2.636719 3.6875 -2.707031 C 3.601562 -2.816406 3.492188 -2.886719 3.359375 -2.925781 C 3.226562 -2.964844 3.070312 -2.984375 2.882812 -2.984375 L 2.175781 -2.984375 L 2.175781 -0.867188 C 2.175781 -0.773438 2.195312 -0.6875 2.230469 -0.613281 C 2.269531 -0.535156 2.335938 -0.476562 2.429688 -0.429688 C 2.472656 -0.410156 2.566406 -0.382812 2.710938 -0.355469 C 2.859375 -0.328125 2.96875 -0.3125 3.042969 -0.308594 L 3.042969 0 L 0.375 0 L 0.375 -0.308594 C 0.460938 -0.3125 0.574219 -0.324219 0.71875 -0.335938 C 0.863281 -0.347656 0.960938 -0.367188 1.003906 -0.386719 C 1.089844 -0.425781 1.152344 -0.480469 1.191406 -0.554688 C 1.230469 -0.628906 1.25 -0.714844 1.25 -0.820312 L 1.25 -5.265625 C 1.25 -5.359375 1.234375 -5.445312 1.203125 -5.519531 C 1.171875 -5.59375 1.105469 -5.652344 1.003906 -5.699219 C 0.925781 -5.738281 0.820312 -5.769531 0.6875 -5.800781 C 0.554688 -5.828125 0.453125 -5.84375 0.375 -5.851562 L 0.375 -6.160156 L 5.203125 -6.160156 Z "/>
</g>
<g id="glyph-0-1">
<path d="M 4.367188 -0.078125 C 4.230469 -0.0273438 4.109375 0.0117188 4.007812 0.0429688 C 3.90625 0.0703125 3.789062 0.0859375 3.660156 0.0859375 C 3.433594 0.0859375 3.253906 0.0351562 3.117188 -0.0703125 C 2.984375 -0.175781 2.898438 -0.332031 2.859375 -0.535156 L 2.835938 -0.535156 C 2.644531 -0.324219 2.445312 -0.167969 2.230469 -0.0546875 C 2.011719 0.0546875 1.753906 0.109375 1.449219 0.109375 C 1.128906 0.109375 0.863281 0.0117188 0.65625 -0.1875 C 0.449219 -0.382812 0.347656 -0.640625 0.347656 -0.960938 C 0.347656 -1.125 0.371094 -1.273438 0.417969 -1.402344 C 0.464844 -1.53125 0.53125 -1.648438 0.625 -1.753906 C 0.699219 -1.839844 0.792969 -1.917969 0.910156 -1.984375 C 1.03125 -2.054688 1.140625 -2.109375 1.246094 -2.148438 C 1.375 -2.199219 1.640625 -2.289062 2.039062 -2.421875 C 2.4375 -2.554688 2.703125 -2.660156 2.84375 -2.734375 L 2.84375 -3.164062 C 2.84375 -3.203125 2.835938 -3.273438 2.820312 -3.382812 C 2.804688 -3.488281 2.769531 -3.589844 2.71875 -3.683594 C 2.660156 -3.792969 2.578125 -3.886719 2.472656 -3.964844 C 2.367188 -4.042969 2.214844 -4.085938 2.023438 -4.085938 C 1.890625 -4.085938 1.765625 -4.0625 1.652344 -4.015625 C 1.539062 -3.972656 1.457031 -3.925781 1.410156 -3.875 C 1.410156 -3.816406 1.425781 -3.734375 1.453125 -3.621094 C 1.480469 -3.507812 1.492188 -3.402344 1.492188 -3.308594 C 1.492188 -3.207031 1.449219 -3.113281 1.355469 -3.03125 C 1.265625 -2.945312 1.136719 -2.902344 0.976562 -2.902344 C 0.832031 -2.902344 0.726562 -2.957031 0.65625 -3.058594 C 0.589844 -3.160156 0.554688 -3.277344 0.554688 -3.402344 C 0.554688 -3.535156 0.601562 -3.664062 0.695312 -3.785156 C 0.789062 -3.90625 0.914062 -4.015625 1.0625 -4.109375 C 1.195312 -4.191406 1.351562 -4.261719 1.535156 -4.316406 C 1.722656 -4.371094 1.902344 -4.402344 2.078125 -4.402344 C 2.320312 -4.402344 2.535156 -4.382812 2.714844 -4.351562 C 2.894531 -4.316406 3.058594 -4.246094 3.207031 -4.136719 C 3.355469 -4.03125 3.46875 -3.882812 3.542969 -3.699219 C 3.621094 -3.515625 3.660156 -3.28125 3.660156 -2.992188 C 3.660156 -2.578125 3.65625 -2.210938 3.644531 -1.890625 C 3.636719 -1.570312 3.632812 -1.222656 3.632812 -0.84375 C 3.632812 -0.730469 3.652344 -0.640625 3.691406 -0.574219 C 3.730469 -0.507812 3.789062 -0.449219 3.871094 -0.402344 C 3.914062 -0.378906 3.984375 -0.363281 4.078125 -0.359375 C 4.171875 -0.355469 4.269531 -0.355469 4.367188 -0.355469 L 4.367188 -0.078125 M 2.851562 -2.371094 C 2.605469 -2.296875 2.390625 -2.226562 2.203125 -2.15625 C 2.019531 -2.085938 1.847656 -2 1.6875 -1.894531 C 1.542969 -1.796875 1.429688 -1.679688 1.34375 -1.546875 C 1.261719 -1.410156 1.21875 -1.25 1.21875 -1.066406 C 1.21875 -0.824219 1.28125 -0.648438 1.410156 -0.535156 C 1.535156 -0.421875 1.695312 -0.363281 1.886719 -0.363281 C 2.09375 -0.363281 2.273438 -0.414062 2.429688 -0.515625 C 2.585938 -0.613281 2.71875 -0.734375 2.824219 -0.871094 Z "/>
</g>
<g id="glyph-0-2">
<path d="M 4.847656 0 L 3.558594 0 C 3.332031 -0.328125 3.089844 -0.675781 2.832031 -1.050781 C 2.574219 -1.421875 2.304688 -1.785156 2.027344 -2.136719 L 1.671875 -1.804688 L 1.671875 -0.789062 C 1.671875 -0.6875 1.691406 -0.601562 1.726562 -0.53125 C 1.765625 -0.464844 1.824219 -0.414062 1.910156 -0.382812 C 1.980469 -0.351562 2.046875 -0.332031 2.109375 -0.316406 C 2.171875 -0.300781 2.246094 -0.292969 2.332031 -0.285156 L 2.332031 0 L 0.234375 0 L 0.234375 -0.285156 C 0.300781 -0.292969 0.371094 -0.296875 0.441406 -0.304688 C 0.511719 -0.3125 0.574219 -0.324219 0.621094 -0.339844 C 0.703125 -0.363281 0.761719 -0.410156 0.804688 -0.476562 C 0.84375 -0.539062 0.863281 -0.625 0.863281 -0.730469 L 0.863281 -5.707031 C 0.863281 -5.8125 0.839844 -5.914062 0.796875 -6.007812 C 0.75 -6.101562 0.691406 -6.175781 0.621094 -6.222656 C 0.558594 -6.269531 0.464844 -6.300781 0.335938 -6.316406 C 0.207031 -6.328125 0.105469 -6.339844 0.0273438 -6.347656 L 0.0273438 -6.625 L 1.609375 -6.71875 L 1.671875 -6.652344 L 1.671875 -2.125 C 1.898438 -2.351562 2.140625 -2.59375 2.402344 -2.851562 C 2.664062 -3.113281 2.886719 -3.34375 3.066406 -3.542969 C 3.089844 -3.570312 3.113281 -3.605469 3.140625 -3.648438 C 3.167969 -3.6875 3.183594 -3.722656 3.183594 -3.75 C 3.183594 -3.828125 3.121094 -3.886719 2.992188 -3.921875 C 2.867188 -3.960938 2.746094 -3.988281 2.632812 -4 L 2.632812 -4.28125 L 4.515625 -4.28125 L 4.515625 -4.011719 C 4.269531 -3.9375 4.054688 -3.847656 3.871094 -3.738281 C 3.683594 -3.628906 3.539062 -3.53125 3.441406 -3.445312 C 3.371094 -3.386719 3.273438 -3.292969 3.148438 -3.164062 C 3.019531 -3.035156 2.839844 -2.863281 2.613281 -2.652344 C 2.847656 -2.359375 3.117188 -2.011719 3.414062 -1.601562 C 3.710938 -1.195312 3.925781 -0.898438 4.0625 -0.714844 C 4.191406 -0.546875 4.304688 -0.433594 4.40625 -0.382812 C 4.507812 -0.328125 4.65625 -0.296875 4.847656 -0.285156 Z "/>
</g>
<g id="glyph-0-3">
<path d="M 2.957031 -0.1875 C 2.769531 -0.109375 2.589844 -0.0429688 2.421875 0.0117188 C 2.253906 0.0625 2.046875 0.0898438 1.804688 0.0898438 C 1.445312 0.0898438 1.195312 0 1.046875 -0.179688 C 0.902344 -0.359375 0.828125 -0.617188 0.828125 -0.945312 L 0.828125 -3.84375 L 0.0546875 -3.84375 L 0.0546875 -4.261719 L 0.847656 -4.261719 L 0.847656 -5.59375 L 1.636719 -5.59375 L 1.636719 -4.261719 L 2.863281 -4.261719 L 2.863281 -3.84375 L 1.644531 -3.84375 L 1.644531 -1.453125 C 1.644531 -1.273438 1.652344 -1.125 1.664062 -1.003906 C 1.675781 -0.882812 1.707031 -0.78125 1.757812 -0.691406 C 1.804688 -0.605469 1.875 -0.542969 1.964844 -0.5 C 2.058594 -0.457031 2.183594 -0.433594 2.339844 -0.433594 C 2.410156 -0.433594 2.519531 -0.441406 2.660156 -0.453125 C 2.800781 -0.464844 2.898438 -0.484375 2.957031 -0.503906 Z "/>
</g>
<g id="glyph-0-4">
<path d="M 4.488281 -2.183594 C 4.488281 -1.882812 4.441406 -1.585938 4.34375 -1.296875 C 4.25 -1.003906 4.113281 -0.757812 3.9375 -0.554688 C 3.738281 -0.324219 3.503906 -0.152344 3.242188 -0.0390625 C 2.976562 0.0742188 2.683594 0.128906 2.355469 0.128906 C 2.082031 0.128906 1.824219 0.078125 1.578125 -0.0234375 C 1.332031 -0.125 1.113281 -0.277344 0.921875 -0.472656 C 0.734375 -0.667969 0.582031 -0.902344 0.472656 -1.183594 C 0.359375 -1.460938 0.304688 -1.773438 0.304688 -2.121094 C 0.304688 -2.789062 0.5 -3.335938 0.886719 -3.761719 C 1.277344 -4.1875 1.789062 -4.402344 2.417969 -4.402344 C 3.019531 -4.402344 3.515625 -4.199219 3.902344 -3.796875 C 4.292969 -3.390625 4.488281 -2.855469 4.488281 -2.183594 M 3.589844 -2.175781 C 3.589844 -2.390625 3.566406 -2.621094 3.523438 -2.863281 C 3.480469 -3.105469 3.414062 -3.308594 3.328125 -3.476562 C 3.234375 -3.65625 3.113281 -3.800781 2.964844 -3.910156 C 2.8125 -4.015625 2.628906 -4.070312 2.410156 -4.070312 C 2.1875 -4.070312 1.996094 -4.015625 1.839844 -3.90625 C 1.679688 -3.796875 1.554688 -3.644531 1.453125 -3.453125 C 1.363281 -3.277344 1.296875 -3.078125 1.257812 -2.851562 C 1.222656 -2.625 1.203125 -2.40625 1.203125 -2.195312 C 1.203125 -1.917969 1.226562 -1.660156 1.269531 -1.425781 C 1.316406 -1.191406 1.386719 -0.980469 1.484375 -0.792969 C 1.582031 -0.609375 1.707031 -0.464844 1.855469 -0.359375 C 2.007812 -0.253906 2.191406 -0.199219 2.410156 -0.199219 C 2.773438 -0.199219 3.058594 -0.375 3.273438 -0.726562 C 3.484375 -1.074219 3.589844 -1.558594 3.589844 -2.175781 Z "/>
</g>
<g id="glyph-0-5">
<path d="M 3.589844 -3.726562 C 3.589844 -3.582031 3.554688 -3.449219 3.480469 -3.335938 C 3.410156 -3.222656 3.296875 -3.164062 3.148438 -3.164062 C 2.984375 -3.164062 2.859375 -3.207031 2.777344 -3.289062 C 2.691406 -3.375 2.648438 -3.464844 2.648438 -3.566406 C 2.648438 -3.632812 2.652344 -3.6875 2.664062 -3.742188 C 2.671875 -3.792969 2.683594 -3.84375 2.691406 -3.898438 C 2.554688 -3.898438 2.394531 -3.84375 2.214844 -3.734375 C 2.03125 -3.621094 1.875 -3.464844 1.75 -3.265625 L 1.75 -0.773438 C 1.75 -0.671875 1.769531 -0.589844 1.808594 -0.523438 C 1.847656 -0.460938 1.910156 -0.414062 1.992188 -0.382812 C 2.066406 -0.351562 2.15625 -0.332031 2.273438 -0.316406 C 2.386719 -0.300781 2.484375 -0.292969 2.570312 -0.285156 L 2.570312 0 L 0.3125 0 L 0.3125 -0.285156 C 0.378906 -0.292969 0.449219 -0.296875 0.519531 -0.304688 C 0.589844 -0.308594 0.652344 -0.320312 0.703125 -0.339844 C 0.785156 -0.363281 0.84375 -0.410156 0.882812 -0.476562 C 0.921875 -0.539062 0.941406 -0.625 0.941406 -0.730469 L 0.941406 -3.367188 C 0.941406 -3.457031 0.921875 -3.546875 0.878906 -3.632812 C 0.835938 -3.71875 0.777344 -3.789062 0.703125 -3.839844 C 0.648438 -3.875 0.582031 -3.902344 0.507812 -3.917969 C 0.433594 -3.933594 0.351562 -3.945312 0.265625 -3.949219 L 0.265625 -4.234375 L 1.6875 -4.332031 L 1.75 -4.269531 L 1.75 -3.667969 L 1.769531 -3.667969 C 1.949219 -3.902344 2.148438 -4.078125 2.371094 -4.203125 C 2.589844 -4.324219 2.789062 -4.382812 2.972656 -4.382812 C 3.15625 -4.382812 3.304688 -4.324219 3.417969 -4.207031 C 3.53125 -4.085938 3.589844 -3.929688 3.589844 -3.726562 Z "/>
</g>
<g id="glyph-0-6">
</g>
<g id="glyph-0-7">
<path d="M 5 -0.078125 L 3.503906 0.015625 L 3.4375 -0.0429688 L 3.4375 -0.441406 L 3.402344 -0.453125 C 3.253906 -0.285156 3.066406 -0.144531 2.847656 -0.0390625 C 2.625 0.0664062 2.398438 0.121094 2.164062 0.121094 C 1.921875 0.121094 1.6875 0.0664062 1.457031 -0.0429688 C 1.230469 -0.148438 1.035156 -0.300781 0.867188 -0.5 C 0.695312 -0.699219 0.5625 -0.9375 0.460938 -1.21875 C 0.363281 -1.5 0.3125 -1.808594 0.3125 -2.148438 C 0.3125 -2.457031 0.367188 -2.75 0.472656 -3.03125 C 0.578125 -3.308594 0.726562 -3.550781 0.914062 -3.757812 C 1.089844 -3.953125 1.308594 -4.109375 1.5625 -4.222656 C 1.820312 -4.339844 2.078125 -4.398438 2.34375 -4.398438 C 2.542969 -4.398438 2.742188 -4.371094 2.933594 -4.320312 C 3.125 -4.269531 3.289062 -4.207031 3.429688 -4.128906 L 3.429688 -5.621094 C 3.429688 -5.742188 3.410156 -5.851562 3.367188 -5.953125 C 3.328125 -6.050781 3.269531 -6.128906 3.199219 -6.179688 C 3.117188 -6.234375 3.007812 -6.277344 2.871094 -6.300781 C 2.734375 -6.324219 2.585938 -6.34375 2.425781 -6.355469 L 2.425781 -6.625 L 4.179688 -6.71875 L 4.246094 -6.652344 L 4.246094 -0.886719 C 4.246094 -0.785156 4.265625 -0.699219 4.304688 -0.628906 C 4.34375 -0.554688 4.398438 -0.496094 4.476562 -0.445312 C 4.53125 -0.414062 4.609375 -0.390625 4.714844 -0.382812 C 4.816406 -0.375 4.914062 -0.367188 5 -0.363281 L 5 -0.078125 M 3.429688 -0.828125 L 3.429688 -3.332031 C 3.40625 -3.410156 3.367188 -3.488281 3.316406 -3.578125 C 3.265625 -3.664062 3.199219 -3.742188 3.121094 -3.816406 C 3.039062 -3.886719 2.941406 -3.949219 2.828125 -3.996094 C 2.714844 -4.042969 2.582031 -4.066406 2.433594 -4.066406 C 2.257812 -4.066406 2.101562 -4.023438 1.953125 -3.933594 C 1.808594 -3.84375 1.679688 -3.714844 1.566406 -3.546875 C 1.460938 -3.382812 1.375 -3.179688 1.3125 -2.925781 C 1.25 -2.675781 1.21875 -2.398438 1.21875 -2.097656 C 1.21875 -1.851562 1.242188 -1.632812 1.289062 -1.433594 C 1.335938 -1.234375 1.414062 -1.050781 1.523438 -0.882812 C 1.625 -0.71875 1.753906 -0.589844 1.910156 -0.492188 C 2.066406 -0.390625 2.253906 -0.34375 2.472656 -0.34375 C 2.703125 -0.34375 2.894531 -0.394531 3.046875 -0.496094 C 3.195312 -0.597656 3.324219 -0.707031 3.429688 -0.828125 Z "/>
</g>
<g id="glyph-0-8">
<path d="M -0.0117188 1.398438 C -0.0117188 1.253906 0.0273438 1.136719 0.105469 1.042969 C 0.1875 0.953125 0.285156 0.90625 0.402344 0.90625 C 0.496094 0.90625 0.574219 0.925781 0.640625 0.957031 C 0.707031 0.992188 0.769531 1.039062 0.820312 1.09375 C 0.863281 1.136719 0.910156 1.195312 0.960938 1.269531 C 1.007812 1.34375 1.046875 1.40625 1.078125 1.453125 C 1.222656 1.375 1.394531 1.171875 1.59375 0.84375 C 1.796875 0.515625 1.941406 0.226562 2.03125 -0.0234375 C 1.757812 -0.707031 1.507812 -1.320312 1.285156 -1.863281 C 1.0625 -2.402344 0.828125 -2.964844 0.585938 -3.542969 C 0.53125 -3.675781 0.4375 -3.777344 0.308594 -3.851562 C 0.179688 -3.925781 0.046875 -3.972656 -0.0820312 -3.992188 L -0.0820312 -4.28125 L 1.871094 -4.28125 L 1.871094 -3.976562 C 1.785156 -3.972656 1.679688 -3.953125 1.558594 -3.921875 C 1.4375 -3.886719 1.375 -3.851562 1.375 -3.808594 C 1.375 -3.789062 1.382812 -3.761719 1.394531 -3.71875 C 1.410156 -3.679688 1.425781 -3.636719 1.441406 -3.59375 C 1.550781 -3.308594 1.71875 -2.894531 1.945312 -2.355469 C 2.167969 -1.816406 2.34375 -1.386719 2.46875 -1.0625 C 2.597656 -1.371094 2.734375 -1.691406 2.875 -2.023438 C 3.015625 -2.351562 3.171875 -2.746094 3.34375 -3.195312 C 3.367188 -3.25 3.394531 -3.324219 3.433594 -3.421875 C 3.46875 -3.519531 3.488281 -3.601562 3.488281 -3.671875 C 3.488281 -3.746094 3.421875 -3.816406 3.292969 -3.882812 C 3.160156 -3.949219 3.035156 -3.988281 2.914062 -4 L 2.914062 -4.28125 L 4.503906 -4.28125 L 4.503906 -4.011719 C 4.417969 -3.996094 4.304688 -3.945312 4.164062 -3.859375 C 4.019531 -3.777344 3.914062 -3.65625 3.84375 -3.5 C 3.5 -2.699219 3.195312 -1.972656 2.925781 -1.316406 C 2.660156 -0.660156 2.457031 -0.175781 2.316406 0.132812 C 2.136719 0.539062 1.972656 0.855469 1.828125 1.082031 C 1.6875 1.308594 1.546875 1.488281 1.410156 1.617188 C 1.277344 1.742188 1.15625 1.824219 1.046875 1.863281 C 0.941406 1.90625 0.828125 1.925781 0.710938 1.925781 C 0.484375 1.925781 0.308594 1.875 0.179688 1.765625 C 0.0507812 1.660156 -0.0117188 1.535156 -0.0117188 1.398438 Z "/>
</g>
</g>
</defs>
<g fill="rgb(100%, 100%, 100%)" fill-opacity="1">
<use xlink:href="#glyph-0-0" x="30" y="28.150391"/>
<use xlink:href="#glyph-0-1" x="35" y="28.150391"/>
<use xlink:href="#glyph-0-2" x="39" y="28.150391"/>
<use xlink:href="#glyph-0-3" x="44" y="28.150391"/>
<use xlink:href="#glyph-0-4" x="47" y="28.150391"/>
<use xlink:href="#glyph-0-5" x="52" y="28.150391"/>
<use xlink:href="#glyph-0-6" x="56" y="28.150391"/>
<use xlink:href="#glyph-0-7" x="58" y="28.150391"/>
<use xlink:href="#glyph-0-1" x="63" y="28.150391"/>
<use xlink:href="#glyph-0-8" x="67" y="28.150391"/>
<use xlink:href="#glyph-0-1" x="71" y="28.150391"/>
</g>
</svg>
