<?xml version="1.0" encoding="UTF-8"?>
<svg xmlns="http://www.w3.org/2000/svg" xmlns:xlink="http://www.w3.org/1999/xlink" width="304" height="540" viewBox="0 0 304 540">
<defs>
<g>
<g id="glyph-0-0">
<path d="M 4.578125 -4.386719 C 4.523438 -4.386719 4.457031 -4.375 4.375 -4.351562 C 4.292969 -4.328125 4.226562 -4.300781 4.175781 -4.265625 C 4.101562 -4.222656 4.042969 -4.164062 4 -4.09375 C 3.953125 -4.019531 3.910156 -3.933594 3.867188 -3.835938 C 3.722656 -3.492188 3.503906 -2.957031 3.210938 -2.226562 C 2.921875 -1.496094 2.621094 -0.734375 2.3125 0.0585938 L 2.042969 0.0585938 C 1.730469 -0.78125 1.429688 -1.589844 1.140625 -2.371094 C 0.847656 -3.148438 0.652344 -3.675781 0.546875 -3.949219 C 0.519531 -4.015625 0.484375 -4.074219 0.441406 -4.125 C 0.398438 -4.175781 0.339844 -4.226562 0.269531 -4.269531 C 0.210938 -4.308594 0.148438 -4.335938 0.0742188 -4.355469 C 0.00390625 -4.371094 -0.0625 -4.382812 -0.125 -4.386719 L -0.125 -4.617188 L 1.789062 -4.617188 L 1.789062 -4.386719 C 1.625 -4.378906 1.488281 -4.363281 1.375 -4.339844 C 1.265625 -4.316406 1.207031 -4.273438 1.207031 -4.210938 C 1.207031 -4.1875 1.210938 -4.160156 1.222656 -4.128906 C 1.230469 -4.09375 1.238281 -4.070312 1.242188 -4.050781 C 1.324219 -3.835938 1.453125 -3.488281 1.632812 -3.007812 C 1.816406 -2.527344 2.070312 -1.84375 2.402344 -0.953125 C 2.566406 -1.355469 2.757812 -1.832031 2.972656 -2.378906 C 3.1875 -2.925781 3.332031 -3.300781 3.40625 -3.503906 C 3.476562 -3.703125 3.519531 -3.839844 3.53125 -3.914062 C 3.542969 -3.992188 3.546875 -4.054688 3.546875 -4.101562 C 3.546875 -4.152344 3.527344 -4.191406 3.480469 -4.226562 C 3.4375 -4.261719 3.378906 -4.289062 3.304688 -4.3125 C 3.234375 -4.335938 3.160156 -4.351562 3.085938 -4.363281 C 3.011719 -4.371094 2.9375 -4.382812 2.863281 -4.386719 L 2.863281 -4.617188 L 4.578125 -4.617188 Z "/>
</g>
<g id="glyph-0-1">
<path d="M 5.726562 0 L 4.164062 0 L 4.164062 -0.214844 C 4.214844 -0.21875 4.265625 -0.222656 4.316406 -0.226562 C 4.367188 -0.230469 4.410156 -0.242188 4.449219 -0.253906 C 4.511719 -0.273438 4.554688 -0.308594 4.585938 -0.355469 C 4.613281 -0.40625 4.628906 -0.46875 4.628906 -0.546875 L 4.628906 -2.203125 C 4.628906 -2.429688 4.578125 -2.605469 4.472656 -2.726562 C 4.371094 -2.847656 4.242188 -2.910156 4.089844 -2.910156 C 3.980469 -2.910156 3.882812 -2.894531 3.789062 -2.859375 C 3.695312 -2.828125 3.609375 -2.78125 3.53125 -2.722656 C 3.46875 -2.675781 3.417969 -2.625 3.375 -2.570312 C 3.332031 -2.515625 3.300781 -2.46875 3.277344 -2.429688 L 3.277344 -0.578125 C 3.277344 -0.503906 3.289062 -0.441406 3.316406 -0.390625 C 3.34375 -0.34375 3.386719 -0.304688 3.449219 -0.28125 C 3.5 -0.261719 3.546875 -0.246094 3.585938 -0.234375 C 3.625 -0.226562 3.679688 -0.21875 3.742188 -0.214844 L 3.742188 0 L 2.214844 0 L 2.214844 -0.214844 C 2.261719 -0.21875 2.3125 -0.222656 2.359375 -0.226562 C 2.40625 -0.230469 2.449219 -0.242188 2.488281 -0.253906 C 2.546875 -0.273438 2.59375 -0.308594 2.621094 -0.355469 C 2.652344 -0.40625 2.664062 -0.46875 2.664062 -0.546875 L 2.664062 -2.203125 C 2.664062 -2.429688 2.613281 -2.605469 2.511719 -2.726562 C 2.40625 -2.847656 2.277344 -2.910156 2.125 -2.910156 C 2.019531 -2.910156 1.917969 -2.894531 1.824219 -2.859375 C 1.730469 -2.824219 1.644531 -2.78125 1.566406 -2.722656 C 1.503906 -2.671875 1.449219 -2.621094 1.40625 -2.558594 C 1.363281 -2.5 1.332031 -2.457031 1.308594 -2.425781 L 1.308594 -0.585938 C 1.308594 -0.511719 1.324219 -0.449219 1.355469 -0.398438 C 1.382812 -0.351562 1.429688 -0.3125 1.492188 -0.285156 C 1.535156 -0.265625 1.582031 -0.25 1.628906 -0.238281 C 1.679688 -0.226562 1.730469 -0.21875 1.789062 -0.214844 L 1.789062 0 L 0.230469 0 L 0.230469 -0.214844 C 0.28125 -0.21875 0.332031 -0.222656 0.386719 -0.226562 C 0.4375 -0.230469 0.484375 -0.242188 0.523438 -0.253906 C 0.585938 -0.273438 0.628906 -0.308594 0.660156 -0.355469 C 0.6875 -0.40625 0.703125 -0.46875 0.703125 -0.546875 L 0.703125 -2.539062 C 0.703125 -2.609375 0.6875 -2.671875 0.65625 -2.726562 C 0.625 -2.78125 0.582031 -2.828125 0.523438 -2.867188 C 0.484375 -2.894531 0.433594 -2.914062 0.371094 -2.929688 C 0.308594 -2.949219 0.246094 -2.957031 0.183594 -2.960938 L 0.183594 -3.175781 L 1.257812 -3.25 L 1.300781 -3.203125 L 1.300781 -2.742188 L 1.324219 -2.742188 C 1.378906 -2.796875 1.445312 -2.863281 1.523438 -2.9375 C 1.601562 -3.011719 1.675781 -3.070312 1.742188 -3.113281 C 1.816406 -3.167969 1.914062 -3.210938 2.027344 -3.246094 C 2.140625 -3.28125 2.261719 -3.296875 2.394531 -3.296875 C 2.605469 -3.296875 2.78125 -3.242188 2.933594 -3.128906 C 3.082031 -3.019531 3.191406 -2.882812 3.253906 -2.722656 C 3.332031 -2.800781 3.402344 -2.867188 3.460938 -2.925781 C 3.519531 -2.980469 3.601562 -3.042969 3.695312 -3.109375 C 3.78125 -3.164062 3.875 -3.210938 3.988281 -3.246094 C 4.101562 -3.28125 4.222656 -3.296875 4.359375 -3.296875 C 4.632812 -3.296875 4.84375 -3.207031 5.003906 -3.03125 C 5.160156 -2.851562 5.242188 -2.578125 5.242188 -2.210938 L 5.242188 -0.578125 C 5.242188 -0.503906 5.253906 -0.441406 5.28125 -0.390625 C 5.304688 -0.34375 5.351562 -0.304688 5.414062 -0.28125 C 5.464844 -0.261719 5.511719 -0.246094 5.5625 -0.234375 C 5.609375 -0.226562 5.664062 -0.21875 5.726562 -0.214844 Z "/>
</g>
</g>
</defs>
<g fill="rgb(100%, 100%, 100%)" fill-opacity="1">
<use xlink:href="#glyph-0-0" x="30" y="26.112305"/>
<use xlink:href="#glyph-0-1" x="34" y="26.112305"/>
</g>
</svg>
