<?xml version="1.0" encoding="UTF-8"?>
<svg xmlns="http://www.w3.org/2000/svg" xmlns:xlink="http://www.w3.org/1999/xlink" width="1920" height="1080" viewBox="0 0 1920 1080">
<defs>
<g>
<g id="glyph-0-0">
<path d="M 0.480469 -3.105469 L 2.355469 -3.289062 C 2.46875 -2.660156 2.699219 -2.195312 3.042969 -1.902344 C 3.386719 -1.605469 3.855469 -1.457031 4.441406 -1.457031 C 5.0625 -1.457031 5.527344 -1.589844 5.84375 -1.851562 C 6.15625 -2.113281 6.316406 -2.421875 6.316406 -2.773438 C 6.316406 -3 6.25 -3.191406 6.117188 -3.347656 C 5.984375 -3.507812 5.753906 -3.644531 5.421875 -3.761719 C 5.199219 -3.839844 4.683594 -3.980469 3.878906 -4.179688 C 2.847656 -4.4375 2.121094 -4.75 1.707031 -5.125 C 1.121094 -5.648438 0.828125 -6.289062 0.828125 -7.042969 C 0.828125 -7.53125 0.964844 -7.984375 1.242188 -8.40625 C 1.515625 -8.832031 1.914062 -9.152344 2.429688 -9.375 C 2.949219 -9.597656 3.578125 -9.707031 4.308594 -9.707031 C 5.507812 -9.707031 6.410156 -9.445312 7.015625 -8.917969 C 7.621094 -8.394531 7.9375 -7.691406 7.96875 -6.816406 L 6.042969 -6.730469 C 5.960938 -7.222656 5.78125 -7.574219 5.511719 -7.789062 C 5.238281 -8.003906 4.832031 -8.113281 4.289062 -8.113281 C 3.730469 -8.113281 3.292969 -7.996094 2.976562 -7.765625 C 2.769531 -7.621094 2.667969 -7.421875 2.667969 -7.175781 C 2.667969 -6.949219 2.765625 -6.753906 2.957031 -6.59375 C 3.199219 -6.390625 3.789062 -6.179688 4.726562 -5.957031 C 5.664062 -5.734375 6.355469 -5.507812 6.804688 -5.269531 C 7.253906 -5.035156 7.605469 -4.710938 7.859375 -4.300781 C 8.117188 -3.890625 8.242188 -3.382812 8.242188 -2.78125 C 8.242188 -2.234375 8.089844 -1.722656 7.785156 -1.242188 C 7.484375 -0.765625 7.054688 -0.410156 6.496094 -0.179688 C 5.941406 0.0546875 5.25 0.167969 4.421875 0.167969 C 3.214844 0.167969 2.289062 -0.109375 1.640625 -0.667969 C 0.992188 -1.226562 0.609375 -2.039062 0.480469 -3.105469 Z "/>
</g>
<g id="glyph-0-1">
<path d="M 0.96875 0 L 0.96875 -9.542969 L 8.046875 -9.542969 L 8.046875 -7.929688 L 2.898438 -7.929688 L 2.898438 -5.8125 L 7.6875 -5.8125 L 7.6875 -4.207031 L 2.898438 -4.207031 L 2.898438 -1.609375 L 8.230469 -1.609375 L 8.230469 0 Z "/>
</g>
<g id="glyph-0-2">
<path d="M 5.410156 -3.507812 L 5.410156 -5.117188 L 9.5625 -5.117188 L 9.5625 -1.316406 C 9.160156 -0.925781 8.574219 -0.582031 7.808594 -0.28125 C 7.042969 0.015625 6.265625 0.164062 5.480469 0.164062 C 4.484375 0.164062 3.613281 -0.046875 2.871094 -0.464844 C 2.128906 -0.882812 1.570312 -1.484375 1.199219 -2.261719 C 0.824219 -3.042969 0.636719 -3.890625 0.636719 -4.804688 C 0.636719 -5.796875 0.847656 -6.683594 1.261719 -7.453125 C 1.679688 -8.226562 2.289062 -8.820312 3.09375 -9.230469 C 3.703125 -9.546875 4.464844 -9.707031 5.378906 -9.707031 C 6.5625 -9.707031 7.488281 -9.457031 8.15625 -8.960938 C 8.820312 -8.464844 9.25 -7.777344 9.441406 -6.902344 L 7.527344 -6.542969 C 7.390625 -7.011719 7.136719 -7.382812 6.765625 -7.652344 C 6.394531 -7.925781 5.933594 -8.058594 5.378906 -8.058594 C 4.535156 -8.058594 3.867188 -7.792969 3.367188 -7.257812 C 2.871094 -6.726562 2.625 -5.933594 2.625 -4.882812 C 2.625 -3.75 2.875 -2.898438 3.378906 -2.335938 C 3.882812 -1.765625 4.542969 -1.484375 5.359375 -1.484375 C 5.761719 -1.484375 6.167969 -1.5625 6.570312 -1.722656 C 6.976562 -1.878906 7.328125 -2.074219 7.617188 -2.296875 L 7.617188 -3.507812 Z "/>
</g>
<g id="glyph-0-3">
<path d="M 0.945312 0 L 0.945312 -9.542969 L 3.828125 -9.542969 L 5.558594 -3.035156 L 7.273438 -9.542969 L 10.164062 -9.542969 L 10.164062 0 L 8.371094 0 L 8.371094 -7.511719 L 6.476562 0 L 4.621094 0 L 2.734375 -7.511719 L 2.734375 0 Z "/>
</g>
<g id="glyph-0-4">
<path d="M 0.988281 0 L 0.988281 -9.542969 L 2.863281 -9.542969 L 6.769531 -3.171875 L 6.769531 -9.542969 L 8.5625 -9.542969 L 8.5625 0 L 6.628906 0 L 2.78125 -6.222656 L 2.78125 0 Z "/>
</g>
<g id="glyph-0-5">
<path d="M 3.117188 0 L 3.117188 -7.929688 L 0.285156 -7.929688 L 0.285156 -9.542969 L 7.871094 -9.542969 L 7.871094 -7.929688 L 5.046875 -7.929688 L 5.046875 0 Z "/>
</g>
<g id="glyph-0-6">
</g>
<g id="glyph-0-7">
<path d="M 6.765625 -7.207031 L 4.992188 -7.011719 C 4.949219 -7.375 4.835938 -7.644531 4.65625 -7.820312 C 4.472656 -7.992188 4.234375 -8.078125 3.945312 -8.078125 C 3.558594 -8.078125 3.230469 -7.90625 2.964844 -7.558594 C 2.699219 -7.210938 2.53125 -6.488281 2.460938 -5.390625 C 2.917969 -5.929688 3.484375 -6.199219 4.160156 -6.199219 C 4.925781 -6.199219 5.578125 -5.90625 6.121094 -5.324219 C 6.667969 -4.742188 6.941406 -3.992188 6.941406 -3.074219 C 6.941406 -2.097656 6.652344 -1.3125 6.082031 -0.722656 C 5.507812 -0.132812 4.773438 0.164062 3.875 0.164062 C 2.910156 0.164062 2.117188 -0.210938 1.496094 -0.960938 C 0.875 -1.707031 0.566406 -2.9375 0.566406 -4.640625 C 0.566406 -6.390625 0.890625 -7.652344 1.535156 -8.425781 C 2.183594 -9.195312 3.023438 -9.582031 4.054688 -9.582031 C 4.78125 -9.582031 5.378906 -9.378906 5.855469 -8.976562 C 6.332031 -8.570312 6.632812 -7.980469 6.765625 -7.207031 M 2.617188 -3.214844 C 2.617188 -2.621094 2.753906 -2.164062 3.027344 -1.839844 C 3.300781 -1.515625 3.613281 -1.355469 3.964844 -1.355469 C 4.304688 -1.355469 4.585938 -1.488281 4.8125 -1.75 C 5.035156 -2.015625 5.148438 -2.449219 5.148438 -3.054688 C 5.148438 -3.675781 5.027344 -4.128906 4.785156 -4.417969 C 4.542969 -4.707031 4.238281 -4.851562 3.875 -4.851562 C 3.523438 -4.851562 3.226562 -4.710938 2.980469 -4.4375 C 2.738281 -4.160156 2.617188 -3.753906 2.617188 -3.214844 Z "/>
</g>
<g id="glyph-0-8">
<path d="M 3.992188 2.804688 L 2.734375 2.804688 C 2.070312 1.804688 1.566406 0.761719 1.21875 -0.320312 C 0.871094 -1.398438 0.695312 -2.445312 0.695312 -3.457031 C 0.695312 -4.710938 0.910156 -5.898438 1.339844 -7.019531 C 1.714844 -7.992188 2.1875 -8.886719 2.761719 -9.707031 L 4.011719 -9.707031 C 3.414062 -8.390625 3.007812 -7.273438 2.78125 -6.351562 C 2.558594 -5.429688 2.449219 -4.449219 2.449219 -3.417969 C 2.449219 -2.707031 2.515625 -1.976562 2.644531 -1.230469 C 2.777344 -0.484375 2.960938 0.226562 3.191406 0.898438 C 3.34375 1.339844 3.609375 1.976562 3.992188 2.804688 Z "/>
</g>
<g id="glyph-0-9">
<path d="M 0.910156 0 L 0.910156 -9.542969 L 2.839844 -9.542969 L 2.839844 0 Z "/>
</g>
<g id="glyph-0-10">
<path d="M 0.957031 -9.542969 L 2.882812 -9.542969 L 2.882812 -4.375 C 2.882812 -3.554688 2.90625 -3.023438 2.957031 -2.78125 C 3.039062 -2.390625 3.234375 -2.074219 3.542969 -1.839844 C 3.855469 -1.601562 4.28125 -1.484375 4.816406 -1.484375 C 5.363281 -1.484375 5.777344 -1.597656 6.054688 -1.820312 C 6.332031 -2.042969 6.5 -2.316406 6.554688 -2.644531 C 6.613281 -2.96875 6.640625 -3.507812 6.640625 -4.265625 L 6.640625 -9.542969 L 8.566406 -9.542969 L 8.566406 -4.53125 C 8.566406 -3.386719 8.515625 -2.574219 8.410156 -2.101562 C 8.308594 -1.628906 8.117188 -1.230469 7.835938 -0.90625 C 7.554688 -0.578125 7.179688 -0.320312 6.710938 -0.125 C 6.242188 0.0664062 5.632812 0.164062 4.875 0.164062 C 3.964844 0.164062 3.273438 0.0585938 2.800781 -0.152344 C 2.332031 -0.363281 1.960938 -0.636719 1.6875 -0.972656 C 1.414062 -1.308594 1.234375 -1.664062 1.144531 -2.03125 C 1.019531 -2.578125 0.957031 -3.386719 0.957031 -4.453125 Z "/>
</g>
<g id="glyph-0-11">
<path d="M 1.023438 0 L 1.023438 -9.464844 L 2.949219 -9.464844 L 2.949219 -1.609375 L 7.742188 -1.609375 L 7.742188 0 Z "/>
</g>
<g id="glyph-0-12">
<path d="M 9.578125 0 L 7.480469 0 L 6.648438 -2.167969 L 2.832031 -2.167969 L 2.042969 0 L 0 0 L 3.71875 -9.542969 L 5.753906 -9.542969 L 9.578125 0 M 6.027344 -3.777344 L 4.714844 -7.316406 L 3.425781 -3.777344 Z "/>
</g>
<g id="glyph-0-13">
<path d="M 9.414062 -1.164062 L 8.308594 0.246094 C 7.765625 -0.015625 7.242188 -0.382812 6.746094 -0.847656 C 6.359375 -0.5 5.949219 -0.242188 5.515625 -0.078125 C 5.082031 0.0859375 4.5625 0.167969 3.964844 0.167969 C 2.777344 0.167969 1.882812 -0.164062 1.28125 -0.832031 C 0.816406 -1.351562 0.585938 -1.945312 0.585938 -2.617188 C 0.585938 -3.230469 0.769531 -3.777344 1.132812 -4.265625 C 1.496094 -4.757812 2.042969 -5.179688 2.765625 -5.539062 C 2.441406 -5.925781 2.195312 -6.292969 2.03125 -6.644531 C 1.867188 -6.992188 1.785156 -7.324219 1.785156 -7.636719 C 1.785156 -8.214844 2.015625 -8.703125 2.476562 -9.105469 C 2.9375 -9.507812 3.597656 -9.707031 4.453125 -9.707031 C 5.277344 -9.707031 5.921875 -9.496094 6.386719 -9.074219 C 6.851562 -8.65625 7.082031 -8.140625 7.082031 -7.53125 C 7.082031 -7.144531 6.96875 -6.78125 6.738281 -6.433594 C 6.507812 -6.085938 6.042969 -5.691406 5.34375 -5.253906 L 6.671875 -3.503906 C 6.828125 -3.78125 6.964844 -4.144531 7.078125 -4.589844 L 8.730469 -4.210938 C 8.566406 -3.625 8.421875 -3.199219 8.300781 -2.925781 C 8.179688 -2.65625 8.050781 -2.429688 7.910156 -2.246094 C 8.113281 -2.054688 8.378906 -1.84375 8.703125 -1.617188 C 9.023438 -1.390625 9.261719 -1.238281 9.414062 -1.164062 M 4.433594 -6.355469 L 4.929688 -6.730469 C 5.292969 -7.015625 5.476562 -7.292969 5.476562 -7.570312 C 5.476562 -7.804688 5.386719 -8.003906 5.210938 -8.171875 C 5.035156 -8.335938 4.796875 -8.417969 4.5 -8.417969 C 4.207031 -8.417969 3.980469 -8.34375 3.816406 -8.199219 C 3.648438 -8.054688 3.566406 -7.886719 3.566406 -7.695312 C 3.566406 -7.46875 3.707031 -7.195312 3.984375 -6.875 L 4.433594 -6.355469 M 3.71875 -4.367188 C 3.296875 -4.15625 2.980469 -3.898438 2.773438 -3.601562 C 2.566406 -3.300781 2.460938 -2.996094 2.460938 -2.683594 C 2.460938 -2.289062 2.589844 -1.964844 2.847656 -1.714844 C 3.105469 -1.464844 3.453125 -1.339844 3.886719 -1.339844 C 4.171875 -1.339844 4.449219 -1.398438 4.714844 -1.511719 C 4.976562 -1.625 5.265625 -1.808594 5.578125 -2.070312 Z "/>
</g>
<g id="glyph-0-14">
<path d="M 0.96875 0 L 0.96875 -9.542969 L 4.0625 -9.542969 C 5.234375 -9.542969 6 -9.496094 6.355469 -9.402344 C 6.902344 -9.257812 7.359375 -8.945312 7.726562 -8.46875 C 8.097656 -7.988281 8.28125 -7.367188 8.28125 -6.609375 C 8.28125 -6.023438 8.175781 -5.53125 7.960938 -5.128906 C 7.75 -4.730469 7.480469 -4.417969 7.152344 -4.1875 C 6.824219 -3.960938 6.492188 -3.8125 6.152344 -3.738281 C 5.691406 -3.644531 5.027344 -3.601562 4.152344 -3.601562 L 2.898438 -3.601562 L 2.898438 0 L 0.96875 0 M 2.898438 -7.929688 L 2.898438 -5.222656 L 3.953125 -5.222656 C 4.710938 -5.222656 5.21875 -5.269531 5.476562 -5.371094 C 5.730469 -5.472656 5.933594 -5.628906 6.078125 -5.839844 C 6.222656 -6.050781 6.296875 -6.300781 6.296875 -6.582031 C 6.296875 -6.929688 6.195312 -7.214844 5.988281 -7.441406 C 5.785156 -7.667969 5.527344 -7.808594 5.214844 -7.863281 C 4.984375 -7.90625 4.523438 -7.929688 3.828125 -7.929688 Z "/>
</g>
<g id="glyph-0-15">
<path d="M 0.996094 0 L 0.996094 -9.542969 L 2.921875 -9.542969 L 2.921875 -5.304688 L 6.816406 -9.542969 L 9.40625 -9.542969 L 5.8125 -5.828125 L 9.601562 0 L 7.109375 0 L 4.484375 -4.480469 L 2.921875 -2.882812 L 2.921875 0 Z "/>
</g>
<g id="glyph-0-16">
<path d="M 0.910156 -1.828125 L 2.742188 -1.828125 L 2.742188 -0.519531 C 2.742188 0.0078125 2.695312 0.425781 2.605469 0.730469 C 2.511719 1.039062 2.339844 1.3125 2.085938 1.554688 C 1.832031 1.800781 1.511719 1.988281 1.121094 2.128906 L 0.761719 1.375 C 1.128906 1.253906 1.394531 1.085938 1.550781 0.871094 C 1.707031 0.660156 1.789062 0.367188 1.796875 0 L 0.910156 0 Z "/>
</g>
<g id="glyph-0-17">
<path d="M 2.824219 -2.316406 L 2.824219 -4.796875 L 0.324219 -4.796875 L 0.324219 -6.511719 L 2.824219 -6.511719 L 2.824219 -8.992188 L 4.492188 -8.992188 L 4.492188 -6.511719 L 7 -6.511719 L 7 -4.796875 L 4.492188 -4.796875 L 4.492188 -2.316406 L 2.824219 -2.316406 M 0.324219 0 L 0.324219 -1.710938 L 7 -1.710938 L 7 0 Z "/>
</g>
<g id="glyph-0-18">
<path d="M 5.246094 0 L 3.417969 0 L 3.417969 -6.894531 C 2.75 -6.269531 1.960938 -5.808594 1.054688 -5.507812 L 1.054688 -7.167969 C 1.53125 -7.324219 2.050781 -7.621094 2.609375 -8.054688 C 3.171875 -8.492188 3.554688 -9 3.761719 -9.582031 L 5.246094 -9.582031 Z "/>
</g>
<g id="glyph-0-19">
<path d="M 0.59375 -2.453125 L 2.414062 -2.644531 C 2.46875 -2.230469 2.621094 -1.902344 2.878906 -1.664062 C 3.132812 -1.421875 3.429688 -1.300781 3.761719 -1.300781 C 4.144531 -1.300781 4.46875 -1.457031 4.734375 -1.765625 C 4.996094 -2.078125 5.128906 -2.546875 5.128906 -3.171875 C 5.128906 -3.757812 5 -4.195312 4.734375 -4.488281 C 4.472656 -4.78125 4.132812 -4.929688 3.710938 -4.929688 C 3.1875 -4.929688 2.714844 -4.695312 2.296875 -4.230469 L 0.8125 -4.445312 L 1.75 -9.414062 L 6.589844 -9.414062 L 6.589844 -7.703125 L 3.136719 -7.703125 L 2.851562 -6.082031 C 3.257812 -6.285156 3.675781 -6.386719 4.101562 -6.386719 C 4.914062 -6.386719 5.601562 -6.089844 6.164062 -5.5 C 6.730469 -4.910156 7.011719 -4.144531 7.011719 -3.203125 C 7.011719 -2.417969 6.785156 -1.714844 6.328125 -1.101562 C 5.707031 -0.257812 4.847656 0.164062 3.742188 0.164062 C 2.863281 0.164062 2.144531 -0.0742188 1.589844 -0.546875 C 1.03125 -1.019531 0.699219 -1.65625 0.59375 -2.453125 Z "/>
</g>
<g id="glyph-0-20">
<path d="M 0.820312 -6.914062 L 2.507812 -6.914062 L 2.507812 -5.96875 C 3.109375 -6.703125 3.828125 -7.070312 4.660156 -7.070312 C 5.105469 -7.070312 5.488281 -6.980469 5.8125 -6.796875 C 6.140625 -6.613281 6.40625 -6.339844 6.613281 -5.96875 C 6.917969 -6.339844 7.246094 -6.613281 7.597656 -6.796875 C 7.949219 -6.980469 8.324219 -7.070312 8.722656 -7.070312 C 9.230469 -7.070312 9.660156 -6.96875 10.011719 -6.761719 C 10.363281 -6.554688 10.628906 -6.253906 10.800781 -5.851562 C 10.925781 -5.558594 10.988281 -5.082031 10.988281 -4.421875 L 10.988281 0 L 9.160156 0 L 9.160156 -3.953125 C 9.160156 -4.636719 9.097656 -5.082031 8.972656 -5.28125 C 8.800781 -5.539062 8.542969 -5.671875 8.191406 -5.671875 C 7.933594 -5.671875 7.691406 -5.59375 7.46875 -5.4375 C 7.242188 -5.28125 7.078125 -5.050781 6.980469 -4.75 C 6.878906 -4.449219 6.828125 -3.972656 6.828125 -3.320312 L 6.828125 0 L 5 0 L 5 -3.789062 C 5 -4.460938 4.96875 -4.894531 4.902344 -5.089844 C 4.835938 -5.285156 4.734375 -5.433594 4.601562 -5.527344 C 4.460938 -5.621094 4.277344 -5.671875 4.042969 -5.671875 C 3.761719 -5.671875 3.507812 -5.59375 3.28125 -5.441406 C 3.054688 -5.289062 2.894531 -5.070312 2.796875 -4.785156 C 2.699219 -4.5 2.648438 -4.023438 2.648438 -3.359375 L 2.648438 0 L 0.820312 0 Z "/>
</g>
<g id="glyph-0-21">
<path d="M 4.960938 -2.199219 L 6.785156 -1.894531 C 6.550781 -1.226562 6.179688 -0.71875 5.671875 -0.367188 C 5.167969 -0.0195312 4.535156 0.15625 3.777344 0.15625 C 2.574219 0.15625 1.683594 -0.238281 1.105469 -1.023438 C 0.652344 -1.652344 0.421875 -2.445312 0.421875 -3.40625 C 0.421875 -4.550781 0.722656 -5.449219 1.320312 -6.097656 C 1.921875 -6.746094 2.679688 -7.070312 3.59375 -7.070312 C 4.621094 -7.070312 5.433594 -6.730469 6.027344 -6.050781 C 6.625 -5.371094 6.90625 -4.332031 6.882812 -2.929688 L 2.296875 -2.929688 C 2.3125 -2.386719 2.457031 -1.964844 2.742188 -1.664062 C 3.023438 -1.363281 3.375 -1.210938 3.796875 -1.210938 C 4.082031 -1.210938 4.324219 -1.289062 4.519531 -1.445312 C 4.714844 -1.601562 4.859375 -1.851562 4.960938 -2.199219 M 5.066406 -4.050781 C 5.050781 -4.578125 4.914062 -4.980469 4.65625 -5.257812 C 4.394531 -5.53125 4.078125 -5.671875 3.703125 -5.671875 C 3.304688 -5.671875 2.976562 -5.523438 2.714844 -5.234375 C 2.453125 -4.945312 2.328125 -4.546875 2.332031 -4.050781 Z "/>
</g>
<g id="glyph-0-22">
<path d="M 7.246094 0 L 5.417969 0 L 5.417969 -3.527344 C 5.417969 -4.273438 5.378906 -4.757812 5.300781 -4.976562 C 5.222656 -5.195312 5.09375 -5.367188 4.917969 -5.488281 C 4.742188 -5.609375 4.53125 -5.671875 4.285156 -5.671875 C 3.96875 -5.671875 3.683594 -5.582031 3.429688 -5.410156 C 3.179688 -5.238281 3.007812 -5.007812 2.914062 -4.71875 C 2.820312 -4.433594 2.773438 -3.902344 2.773438 -3.132812 L 2.773438 0 L 0.945312 0 L 0.945312 -6.914062 L 2.644531 -6.914062 L 2.644531 -5.898438 C 3.246094 -6.679688 4.007812 -7.070312 4.921875 -7.070312 C 5.324219 -7.070312 5.695312 -6.996094 6.027344 -6.851562 C 6.363281 -6.707031 6.617188 -6.519531 6.785156 -6.296875 C 6.957031 -6.070312 7.078125 -5.8125 7.144531 -5.527344 C 7.210938 -5.242188 7.246094 -4.832031 7.246094 -4.296875 Z "/>
</g>
<g id="glyph-0-23">
<path d="M 0.957031 -7.851562 L 0.957031 -9.542969 L 2.785156 -9.542969 L 2.785156 -7.851562 L 0.957031 -7.851562 M 0.957031 0 L 0.957031 -6.914062 L 2.785156 -6.914062 L 2.785156 0 Z "/>
</g>
<g id="glyph-0-24">
<path d="M 4.128906 -6.914062 L 4.128906 -5.457031 L 2.878906 -5.457031 L 2.878906 -2.667969 C 2.878906 -2.105469 2.890625 -1.777344 2.914062 -1.683594 C 2.9375 -1.589844 2.992188 -1.511719 3.074219 -1.453125 C 3.160156 -1.390625 3.265625 -1.359375 3.386719 -1.359375 C 3.554688 -1.359375 3.800781 -1.417969 4.121094 -1.535156 L 4.277344 -0.117188 C 3.851562 0.0664062 3.371094 0.15625 2.832031 0.15625 C 2.503906 0.15625 2.203125 0.101562 1.941406 -0.0078125 C 1.675781 -0.121094 1.480469 -0.265625 1.355469 -0.4375 C 1.234375 -0.613281 1.148438 -0.851562 1.101562 -1.152344 C 1.0625 -1.363281 1.042969 -1.792969 1.042969 -2.441406 L 1.042969 -5.457031 L 0.203125 -5.457031 L 0.203125 -6.914062 L 1.042969 -6.914062 L 1.042969 -8.289062 L 2.878906 -9.355469 L 2.878906 -6.914062 Z "/>
</g>
<g id="glyph-0-25">
<path d="M 0.449219 2.804688 C 0.808594 2.035156 1.0625 1.441406 1.210938 1.027344 C 1.359375 0.617188 1.496094 0.140625 1.621094 -0.398438 C 1.746094 -0.933594 1.839844 -1.445312 1.902344 -1.929688 C 1.960938 -2.414062 1.992188 -2.910156 1.992188 -3.417969 C 1.992188 -4.449219 1.882812 -5.429688 1.660156 -6.351562 C 1.4375 -7.273438 1.03125 -8.390625 0.4375 -9.707031 L 1.679688 -9.707031 C 2.335938 -8.773438 2.84375 -7.785156 3.207031 -6.738281 C 3.570312 -5.691406 3.75 -4.632812 3.75 -3.554688 C 3.75 -2.648438 3.605469 -1.675781 3.320312 -0.636719 C 2.996094 0.523438 2.457031 1.671875 1.710938 2.804688 Z "/>
</g>
</g>
</defs>
<g fill="rgb(100%, 100%, 100%)" fill-opacity="1">
<use xlink:href="#glyph-0-0" x="30" y="32.070312"/>
<use xlink:href="#glyph-0-1" x="39" y="32.070312"/>
<use xlink:href="#glyph-0-2" x="48" y="32.070312"/>
<use xlink:href="#glyph-0-3" x="58" y="32.070312"/>
<use xlink:href="#glyph-0-1" x="69" y="32.070312"/>
<use xlink:href="#glyph-0-4" x="78" y="32.070312"/>
<use xlink:href="#glyph-0-5" x="88" y="32.070312"/>
<use xlink:href="#glyph-0-6" x="96" y="32.070312"/>
<use xlink:href="#glyph-0-7" x="100" y="32.070312"/>
<use xlink:href="#glyph-0-6" x="107" y="32.070312"/>
<use xlink:href="#glyph-0-8" x="111" y="32.070312"/>
<use xlink:href="#glyph-0-0" x="115" y="32.070312"/>
<use xlink:href="#glyph-0-9" x="124" y="32.070312"/>
<use xlink:href="#glyph-0-3" x="128" y="32.070312"/>
<use xlink:href="#glyph-0-10" x="139" y="32.070312"/>
<use xlink:href="#glyph-0-11" x="149" y="32.070312"/>
<use xlink:href="#glyph-0-12" x="157" y="32.070312"/>
<use xlink:href="#glyph-0-0" x="167" y="32.070312"/>
<use xlink:href="#glyph-0-9" x="176" y="32.070312"/>
<use xlink:href="#glyph-0-6" x="180" y="32.070312"/>
<use xlink:href="#glyph-0-13" x="184" y="32.070312"/>
<use xlink:href="#glyph-0-6" x="194" y="32.070312"/>
<use xlink:href="#glyph-0-12" x="197" y="32.070312"/>
<use xlink:href="#glyph-0-14" x="207" y="32.070312"/>
<use xlink:href="#glyph-0-11" x="216" y="32.070312"/>
<use xlink:href="#glyph-0-9" x="224" y="32.070312"/>
<use xlink:href="#glyph-0-15" x="228" y="32.070312"/>
<use xlink:href="#glyph-0-12" x="238" y="32.070312"/>
<use xlink:href="#glyph-0-0" x="248" y="32.070312"/>
<use xlink:href="#glyph-0-9" x="257" y="32.070312"/>
<use xlink:href="#glyph-0-16" x="261" y="32.070312"/>
<use xlink:href="#glyph-0-6" x="265" y="32.070312"/>
<use xlink:href="#glyph-0-17" x="269" y="32.070312"/>
<use xlink:href="#glyph-0-18" x="276" y="32.070312"/>
<use xlink:href="#glyph-0-19" x="283" y="32.070312"/>
<use xlink:href="#glyph-0-6" x="290" y="32.070312"/>
<use xlink:href="#glyph-0-20" x="294" y="32.070312"/>
<use xlink:href="#glyph-0-21" x="306" y="32.070312"/>
<use xlink:href="#glyph-0-22" x="313" y="32.070312"/>
<use xlink:href="#glyph-0-23" x="321" y="32.070312"/>
<use xlink:href="#glyph-0-24" x="325" y="32.070312"/>
<use xlink:href="#glyph-0-25" x="329" y="32.070312"/>
</g>
</svg>
