<?xml version="1.0" encoding="UTF-8"?>
<svg xmlns="http://www.w3.org/2000/svg" xmlns:xlink="http://www.w3.org/1999/xlink" width="1920" height="1080" viewBox="0 0 1920 1080">
<defs>
<g>
<g id="glyph-0-0">
<path d="M 0.480469 -3.105469 L 2.355469 -3.289062 C 2.46875 -2.660156 2.699219 -2.195312 3.042969 -1.902344 C 3.386719 -1.605469 3.855469 -1.457031 4.441406 -1.457031 C 5.0625 -1.457031 5.527344 -1.589844 5.84375 -1.851562 C 6.15625 -2.113281 6.316406 -2.421875 6.316406 -2.773438 C 6.316406 -3 6.25 -3.191406 6.117188 -3.347656 C 5.984375 -3.507812 5.753906 -3.644531 5.421875 -3.761719 C 5.199219 -3.839844 4.683594 -3.980469 3.878906 -4.179688 C 2.847656 -4.4375 2.121094 -4.75 1.707031 -5.125 C 1.121094 -5.648438 0.828125 -6.289062 0.828125 -7.042969 C 0.828125 -7.53125 0.964844 -7.984375 1.242188 -8.40625 C 1.515625 -8.832031 1.914062 -9.152344 2.429688 -9.375 C 2.949219 -9.597656 3.578125 -9.707031 4.308594 -9.707031 C 5.507812 -9.707031 6.410156 -9.445312 7.015625 -8.917969 C 7.621094 -8.394531 7.9375 -7.691406 7.96875 -6.816406 L 6.042969 -6.730469 C 5.960938 -7.222656 5.78125 -7.574219 5.511719 -7.789062 C 5.238281 -8.003906 4.832031 -8.113281 4.289062 -8.113281 C 3.730469 -8.113281 3.292969 -7.996094 2.976562 -7.765625 C 2.769531 -7.621094 2.667969 -7.421875 2.667969 -7.175781 C 2.667969 -6.949219 2.765625 -6.753906 2.957031 -6.59375 C 3.199219 -6.390625 3.789062 -6.179688 4.726562 -5.957031 C 5.664062 -5.734375 6.355469 -5.507812 6.804688 -5.269531 C 7.253906 -5.035156 7.605469 -4.710938 7.859375 -4.300781 C 8.117188 -3.890625 8.242188 -3.382812 8.242188 -2.78125 C 8.242188 -2.234375 8.089844 -1.722656 7.785156 -1.242188 C 7.484375 -0.765625 7.054688 -0.410156 6.496094 -0.179688 C 5.941406 0.0546875 5.25 0.167969 4.421875 0.167969 C 3.214844 0.167969 2.289062 -0.109375 1.640625 -0.667969 C 0.992188 -1.226562 0.609375 -2.039062 0.480469 -3.105469 Z "/>
</g>
<g id="glyph-0-1">
<path d="M 0.957031 -7.851562 L 0.957031 -9.542969 L 2.785156 -9.542969 L 2.785156 -7.851562 L 0.957031 -7.851562 M 0.957031 0 L 0.957031 -6.914062 L 2.785156 -6.914062 L 2.785156 0 Z "/>
</g>
<g id="glyph-0-2">
<path d="M 0.820312 -6.914062 L 2.507812 -6.914062 L 2.507812 -5.96875 C 3.109375 -6.703125 3.828125 -7.070312 4.660156 -7.070312 C 5.105469 -7.070312 5.488281 -6.980469 5.8125 -6.796875 C 6.140625 -6.613281 6.40625 -6.339844 6.613281 -5.96875 C 6.917969 -6.339844 7.246094 -6.613281 7.597656 -6.796875 C 7.949219 -6.980469 8.324219 -7.070312 8.722656 -7.070312 C 9.230469 -7.070312 9.660156 -6.96875 10.011719 -6.761719 C 10.363281 -6.554688 10.628906 -6.253906 10.800781 -5.851562 C 10.925781 -5.558594 10.988281 -5.082031 10.988281 -4.421875 L 10.988281 0 L 9.160156 0 L 9.160156 -3.953125 C 9.160156 -4.636719 9.097656 -5.082031 8.972656 -5.28125 C 8.800781 -5.539062 8.542969 -5.671875 8.191406 -5.671875 C 7.933594 -5.671875 7.691406 -5.59375 7.46875 -5.4375 C 7.242188 -5.28125 7.078125 -5.050781 6.980469 -4.75 C 6.878906 -4.449219 6.828125 -3.972656 6.828125 -3.320312 L 6.828125 0 L 5 0 L 5 -3.789062 C 5 -4.460938 4.96875 -4.894531 4.902344 -5.089844 C 4.835938 -5.285156 4.734375 -5.433594 4.601562 -5.527344 C 4.460938 -5.621094 4.277344 -5.671875 4.042969 -5.671875 C 3.761719 -5.671875 3.507812 -5.59375 3.28125 -5.441406 C 3.054688 -5.289062 2.894531 -5.070312 2.796875 -4.785156 C 2.699219 -4.5 2.648438 -4.023438 2.648438 -3.359375 L 2.648438 0 L 0.820312 0 Z "/>
</g>
<g id="glyph-0-3">
<path d="M 5.507812 0 L 5.507812 -1.035156 C 5.257812 -0.667969 4.925781 -0.375 4.515625 -0.164062 C 4.105469 0.0507812 3.671875 0.15625 3.214844 0.15625 C 2.75 0.15625 2.335938 0.0546875 1.964844 -0.148438 C 1.597656 -0.355469 1.332031 -0.640625 1.164062 -1.007812 C 1 -1.378906 0.917969 -1.886719 0.917969 -2.539062 L 0.917969 -6.914062 L 2.746094 -6.914062 L 2.746094 -3.738281 C 2.746094 -2.765625 2.78125 -2.167969 2.847656 -1.949219 C 2.914062 -1.730469 3.039062 -1.558594 3.214844 -1.429688 C 3.394531 -1.300781 3.621094 -1.238281 3.894531 -1.238281 C 4.207031 -1.238281 4.484375 -1.324219 4.734375 -1.492188 C 4.980469 -1.664062 5.148438 -1.878906 5.242188 -2.132812 C 5.332031 -2.386719 5.378906 -3.007812 5.378906 -3.996094 L 5.378906 -6.914062 L 7.207031 -6.914062 L 7.207031 0 Z "/>
</g>
<g id="glyph-0-4">
<path d="M 0.957031 0 L 0.957031 -9.542969 L 2.785156 -9.542969 L 2.785156 0 Z "/>
</g>
<g id="glyph-0-5">
<path d="M 2.324219 -4.804688 L 0.664062 -5.105469 C 0.851562 -5.773438 1.171875 -6.265625 1.628906 -6.589844 C 2.082031 -6.910156 2.761719 -7.070312 3.660156 -7.070312 C 4.476562 -7.070312 5.082031 -6.972656 5.480469 -6.78125 C 5.882812 -6.585938 6.160156 -6.34375 6.324219 -6.042969 C 6.488281 -5.746094 6.570312 -5.203125 6.570312 -4.40625 L 6.550781 -2.273438 C 6.550781 -1.664062 6.578125 -1.214844 6.636719 -0.925781 C 6.695312 -0.640625 6.804688 -0.328125 6.964844 0 L 5.15625 0 C 5.109375 -0.121094 5.050781 -0.300781 4.980469 -0.539062 C 4.949219 -0.648438 4.929688 -0.71875 4.914062 -0.753906 C 4.601562 -0.453125 4.269531 -0.222656 3.914062 -0.0703125 C 3.558594 0.0820312 3.175781 0.15625 2.773438 0.15625 C 2.0625 0.15625 1.5 -0.0351562 1.089844 -0.421875 C 0.679688 -0.808594 0.476562 -1.296875 0.476562 -1.886719 C 0.476562 -2.277344 0.570312 -2.625 0.753906 -2.933594 C 0.941406 -3.238281 1.203125 -3.472656 1.539062 -3.636719 C 1.875 -3.796875 2.359375 -3.941406 2.996094 -4.0625 C 3.851562 -4.222656 4.441406 -4.371094 4.773438 -4.511719 L 4.773438 -4.695312 C 4.773438 -5.046875 4.683594 -5.296875 4.511719 -5.445312 C 4.339844 -5.59375 4.011719 -5.671875 3.527344 -5.671875 C 3.203125 -5.671875 2.949219 -5.605469 2.765625 -5.476562 C 2.585938 -5.351562 2.4375 -5.125 2.324219 -4.804688 M 4.773438 -3.320312 C 4.539062 -3.242188 4.167969 -3.148438 3.660156 -3.039062 C 3.152344 -2.933594 2.820312 -2.824219 2.664062 -2.722656 C 2.425781 -2.550781 2.304688 -2.335938 2.304688 -2.078125 C 2.304688 -1.820312 2.398438 -1.597656 2.589844 -1.414062 C 2.78125 -1.226562 3.023438 -1.132812 3.320312 -1.132812 C 3.648438 -1.132812 3.964844 -1.242188 4.265625 -1.457031 C 4.484375 -1.625 4.632812 -1.824219 4.699219 -2.0625 C 4.75 -2.21875 4.773438 -2.515625 4.773438 -2.957031 Z "/>
</g>
<g id="glyph-0-6">
<path d="M 0.3125 -1.972656 L 2.148438 -2.253906 C 2.226562 -1.898438 2.386719 -1.625 2.625 -1.441406 C 2.863281 -1.257812 3.195312 -1.164062 3.625 -1.164062 C 4.097656 -1.164062 4.457031 -1.253906 4.695312 -1.425781 C 4.855469 -1.546875 4.933594 -1.710938 4.933594 -1.914062 C 4.933594 -2.054688 4.890625 -2.167969 4.804688 -2.257812 C 4.714844 -2.347656 4.507812 -2.425781 4.191406 -2.5 C 2.71875 -2.824219 1.78125 -3.121094 1.386719 -3.390625 C 0.839844 -3.765625 0.566406 -4.285156 0.566406 -4.949219 C 0.566406 -5.546875 0.804688 -6.050781 1.277344 -6.457031 C 1.75 -6.867188 2.484375 -7.070312 3.476562 -7.070312 C 4.421875 -7.070312 5.125 -6.917969 5.585938 -6.609375 C 6.046875 -6.300781 6.363281 -5.84375 6.535156 -5.242188 L 4.8125 -4.921875 C 4.738281 -5.191406 4.597656 -5.398438 4.390625 -5.539062 C 4.183594 -5.683594 3.890625 -5.753906 3.507812 -5.753906 C 3.027344 -5.753906 2.683594 -5.6875 2.472656 -5.554688 C 2.335938 -5.457031 2.265625 -5.335938 2.265625 -5.183594 C 2.265625 -5.050781 2.328125 -4.941406 2.449219 -4.851562 C 2.613281 -4.730469 3.183594 -4.558594 4.15625 -4.335938 C 5.132812 -4.113281 5.8125 -3.84375 6.199219 -3.523438 C 6.578125 -3.195312 6.769531 -2.742188 6.769531 -2.160156 C 6.769531 -1.527344 6.507812 -0.984375 5.976562 -0.527344 C 5.445312 -0.0703125 4.664062 0.15625 3.625 0.15625 C 2.683594 0.15625 1.9375 -0.0351562 1.390625 -0.417969 C 0.839844 -0.796875 0.480469 -1.316406 0.3125 -1.972656 Z "/>
</g>
<g id="glyph-0-7">
</g>
<g id="glyph-0-8">
<path d="M 7.246094 0 L 5.417969 0 L 5.417969 -3.527344 C 5.417969 -4.273438 5.378906 -4.757812 5.300781 -4.976562 C 5.222656 -5.195312 5.09375 -5.367188 4.917969 -5.488281 C 4.742188 -5.609375 4.53125 -5.671875 4.285156 -5.671875 C 3.96875 -5.671875 3.683594 -5.582031 3.429688 -5.410156 C 3.179688 -5.238281 3.007812 -5.007812 2.914062 -4.71875 C 2.820312 -4.433594 2.773438 -3.902344 2.773438 -3.132812 L 2.773438 0 L 0.945312 0 L 0.945312 -6.914062 L 2.644531 -6.914062 L 2.644531 -5.898438 C 3.246094 -6.679688 4.007812 -7.070312 4.921875 -7.070312 C 5.324219 -7.070312 5.695312 -6.996094 6.027344 -6.851562 C 6.363281 -6.707031 6.617188 -6.519531 6.785156 -6.296875 C 6.957031 -6.070312 7.078125 -5.8125 7.144531 -5.527344 C 7.210938 -5.242188 7.246094 -4.832031 7.246094 -4.296875 Z "/>
</g>
<g id="glyph-0-9">
<path d="M -0.0195312 0.164062 L 2.34375 -9.707031 L 3.71875 -9.707031 L 1.328125 0.164062 Z "/>
</g>
<g id="glyph-0-10">
<path d="M 0.984375 0 L 0.984375 -9.542969 L 7.527344 -9.542969 L 7.527344 -7.929688 L 2.910156 -7.929688 L 2.910156 -5.671875 L 6.894531 -5.671875 L 6.894531 -4.054688 L 2.910156 -4.054688 L 2.910156 0 Z "/>
</g>
<g id="glyph-0-11">
<path d="M 0.535156 -3.554688 C 0.535156 -4.164062 0.683594 -4.75 0.984375 -5.320312 C 1.28125 -5.886719 1.707031 -6.320312 2.257812 -6.621094 C 2.804688 -6.921875 3.417969 -7.070312 4.09375 -7.070312 C 5.140625 -7.070312 6 -6.730469 6.667969 -6.050781 C 7.335938 -5.371094 7.667969 -4.515625 7.667969 -3.476562 C 7.667969 -2.429688 7.332031 -1.5625 6.65625 -0.875 C 5.980469 -0.1875 5.132812 0.15625 4.109375 0.15625 C 3.472656 0.15625 2.871094 0.0117188 2.296875 -0.273438 C 1.71875 -0.558594 1.28125 -0.980469 0.984375 -1.53125 C 0.683594 -2.085938 0.535156 -2.761719 0.535156 -3.554688 M 2.410156 -3.457031 C 2.410156 -2.769531 2.570312 -2.246094 2.898438 -1.882812 C 3.222656 -1.515625 3.625 -1.335938 4.101562 -1.335938 C 4.578125 -1.335938 4.980469 -1.515625 5.300781 -1.882812 C 5.625 -2.246094 5.789062 -2.777344 5.789062 -3.46875 C 5.789062 -4.148438 5.625 -4.667969 5.300781 -5.03125 C 4.980469 -5.398438 4.578125 -5.578125 4.101562 -5.578125 C 3.625 -5.578125 3.222656 -5.398438 2.898438 -5.03125 C 2.570312 -4.667969 2.410156 -4.144531 2.410156 -3.457031 Z "/>
</g>
<g id="glyph-0-12">
<path d="M 2.707031 0 L 0.878906 0 L 0.878906 -6.914062 L 2.578125 -6.914062 L 2.578125 -5.929688 C 2.867188 -6.394531 3.128906 -6.703125 3.363281 -6.847656 C 3.59375 -6.996094 3.859375 -7.070312 4.152344 -7.070312 C 4.570312 -7.070312 4.972656 -6.957031 5.359375 -6.726562 L 4.792969 -5.128906 C 4.484375 -5.328125 4.195312 -5.429688 3.933594 -5.429688 C 3.675781 -5.429688 3.460938 -5.359375 3.28125 -5.21875 C 3.101562 -5.078125 2.964844 -4.820312 2.859375 -4.453125 C 2.757812 -4.085938 2.707031 -3.3125 2.707031 -2.136719 Z "/>
</g>
</g>
</defs>
<g fill="rgb(100%, 100%, 100%)" fill-opacity="1">
<use xlink:href="#glyph-0-0" x="30" y="32.070312"/>
<use xlink:href="#glyph-0-1" x="39" y="32.070312"/>
<use xlink:href="#glyph-0-2" x="43" y="32.070312"/>
<use xlink:href="#glyph-0-3" x="55" y="32.070312"/>
<use xlink:href="#glyph-0-4" x="63" y="32.070312"/>
<use xlink:href="#glyph-0-5" x="67" y="32.070312"/>
<use xlink:href="#glyph-0-6" x="74" y="32.070312"/>
<use xlink:href="#glyph-0-1" x="81" y="32.070312"/>
<use xlink:href="#glyph-0-7" x="85" y="32.070312"/>
<use xlink:href="#glyph-0-0" x="89" y="32.070312"/>
<use xlink:href="#glyph-0-1" x="98" y="32.070312"/>
<use xlink:href="#glyph-0-8" x="102" y="32.070312"/>
<use xlink:href="#glyph-0-3" x="110" y="32.070312"/>
<use xlink:href="#glyph-0-6" x="118" y="32.070312"/>
<use xlink:href="#glyph-0-9" x="125" y="32.070312"/>
<use xlink:href="#glyph-0-10" x="129" y="32.070312"/>
<use xlink:href="#glyph-0-5" x="137" y="32.070312"/>
<use xlink:href="#glyph-0-6" x="144" y="32.070312"/>
<use xlink:href="#glyph-0-11" x="151" y="32.070312"/>
<use xlink:href="#glyph-0-12" x="159" y="32.070312"/>
</g>
</svg>
