<?xml version="1.0" encoding="UTF-8"?>
<svg xmlns="http://www.w3.org/2000/svg" xmlns:xlink="http://www.w3.org/1999/xlink" width="1920" height="1080" viewBox="0 0 1920 1080">
<defs>
<g>
<g id="glyph-0-0">
<path d="M 3.355469 -1.144531 L 3.273438 0 L 0.265625 0 L 0.265625 -0.191406 C 0.308594 -0.195312 0.371094 -0.203125 0.453125 -0.210938 C 0.535156 -0.21875 0.59375 -0.230469 0.625 -0.246094 C 0.679688 -0.269531 0.71875 -0.304688 0.746094 -0.351562 C 0.769531 -0.394531 0.78125 -0.453125 0.78125 -0.523438 L 0.78125 -3.28125 C 0.78125 -3.339844 0.769531 -3.394531 0.75 -3.441406 C 0.730469 -3.488281 0.6875 -3.527344 0.625 -3.554688 C 0.585938 -3.578125 0.527344 -3.597656 0.453125 -3.621094 C 0.375 -3.640625 0.316406 -3.652344 0.265625 -3.65625 L 0.265625 -3.847656 L 1.890625 -3.847656 L 1.890625 -3.65625 C 1.839844 -3.65625 1.773438 -3.644531 1.695312 -3.628906 C 1.613281 -3.613281 1.554688 -3.597656 1.519531 -3.585938 C 1.457031 -3.566406 1.414062 -3.527344 1.394531 -3.476562 C 1.371094 -3.421875 1.359375 -3.367188 1.359375 -3.308594 L 1.359375 -0.722656 C 1.359375 -0.601562 1.363281 -0.507812 1.375 -0.445312 C 1.386719 -0.378906 1.417969 -0.328125 1.460938 -0.289062 C 1.5 -0.257812 1.5625 -0.238281 1.644531 -0.226562 C 1.726562 -0.214844 1.84375 -0.210938 1.992188 -0.210938 C 2.058594 -0.210938 2.128906 -0.214844 2.199219 -0.21875 C 2.273438 -0.21875 2.339844 -0.226562 2.40625 -0.238281 C 2.46875 -0.25 2.527344 -0.265625 2.582031 -0.285156 C 2.632812 -0.300781 2.675781 -0.328125 2.699219 -0.355469 C 2.773438 -0.4375 2.859375 -0.566406 2.957031 -0.734375 C 3.058594 -0.902344 3.125 -1.039062 3.164062 -1.144531 Z "/>
</g>
<g id="glyph-0-1">
</g>
<g id="glyph-0-2">
<path d="M 3.15625 -1.851562 L 0.417969 -1.851562 L 0.417969 -2.191406 L 3.15625 -2.191406 L 3.15625 -1.851562 M 3.15625 -0.84375 L 0.417969 -0.84375 L 0.417969 -1.183594 L 3.15625 -1.183594 Z "/>
</g>
<g id="glyph-0-3">
<path d="M 2.785156 -2.535156 C 2.902344 -2.394531 2.988281 -2.230469 3.046875 -2.042969 C 3.101562 -1.855469 3.128906 -1.660156 3.128906 -1.457031 C 3.128906 -1.210938 3.09375 -0.992188 3.023438 -0.796875 C 2.953125 -0.601562 2.859375 -0.441406 2.734375 -0.3125 C 2.609375 -0.179688 2.457031 -0.0820312 2.285156 -0.0117188 C 2.109375 0.0546875 1.917969 0.0859375 1.703125 0.0859375 C 1.46875 0.0859375 1.261719 0.046875 1.078125 -0.03125 C 0.898438 -0.109375 0.75 -0.214844 0.636719 -0.351562 C 0.515625 -0.492188 0.425781 -0.65625 0.367188 -0.84375 C 0.308594 -1.035156 0.28125 -1.238281 0.28125 -1.457031 C 0.28125 -1.671875 0.308594 -1.871094 0.363281 -2.050781 C 0.421875 -2.230469 0.511719 -2.394531 0.632812 -2.542969 C 0.746094 -2.683594 0.898438 -2.792969 1.078125 -2.875 C 1.261719 -2.957031 1.472656 -2.996094 1.707031 -2.996094 C 1.953125 -2.996094 2.167969 -2.957031 2.34375 -2.871094 C 2.519531 -2.789062 2.667969 -2.675781 2.785156 -2.535156 M 2.53125 -1.457031 C 2.53125 -1.886719 2.457031 -2.222656 2.308594 -2.457031 C 2.164062 -2.695312 1.960938 -2.8125 1.710938 -2.8125 C 1.453125 -2.8125 1.25 -2.695312 1.101562 -2.457031 C 0.953125 -2.222656 0.878906 -1.886719 0.878906 -1.457031 C 0.878906 -1.046875 0.949219 -0.71875 1.09375 -0.46875 C 1.234375 -0.222656 1.4375 -0.0976562 1.703125 -0.0976562 C 1.96875 -0.0976562 2.175781 -0.222656 2.316406 -0.46875 C 2.460938 -0.71875 2.53125 -1.046875 2.53125 -1.457031 Z "/>
</g>
<g id="glyph-0-4">
<path d="M 1.125 -0.3125 C 1.125 -0.210938 1.089844 -0.125 1.015625 -0.0546875 C 0.941406 0.0195312 0.855469 0.0546875 0.753906 0.0546875 C 0.652344 0.0546875 0.566406 0.0195312 0.492188 -0.0546875 C 0.417969 -0.125 0.382812 -0.210938 0.382812 -0.3125 C 0.382812 -0.414062 0.417969 -0.5 0.492188 -0.574219 C 0.566406 -0.648438 0.652344 -0.683594 0.753906 -0.683594 C 0.855469 -0.683594 0.941406 -0.648438 1.015625 -0.574219 C 1.089844 -0.5 1.125 -0.414062 1.125 -0.3125 Z "/>
</g>
<g id="glyph-0-5">
<path d="M 2.285156 -1.273438 C 2.40625 -1.179688 2.503906 -1.058594 2.582031 -0.910156 C 2.664062 -0.761719 2.703125 -0.574219 2.703125 -0.351562 C 2.703125 0.0351562 2.570312 0.355469 2.304688 0.609375 C 2.039062 0.863281 1.699219 0.988281 1.292969 0.988281 C 0.976562 0.988281 0.707031 0.914062 0.488281 0.765625 C 0.269531 0.613281 0.160156 0.441406 0.160156 0.242188 C 0.160156 0.148438 0.183594 0.0703125 0.226562 0 C 0.273438 -0.0703125 0.34375 -0.101562 0.4375 -0.101562 C 0.546875 -0.101562 0.628906 -0.0742188 0.683594 -0.0195312 C 0.742188 0.0390625 0.769531 0.101562 0.769531 0.167969 C 0.769531 0.226562 0.761719 0.296875 0.742188 0.386719 C 0.722656 0.472656 0.707031 0.535156 0.695312 0.578125 C 0.707031 0.589844 0.734375 0.609375 0.765625 0.628906 C 0.796875 0.652344 0.835938 0.671875 0.882812 0.691406 C 0.929688 0.710938 0.984375 0.730469 1.054688 0.746094 C 1.121094 0.761719 1.199219 0.769531 1.292969 0.769531 C 1.40625 0.769531 1.515625 0.746094 1.621094 0.695312 C 1.722656 0.648438 1.808594 0.582031 1.878906 0.488281 C 1.957031 0.386719 2.015625 0.273438 2.054688 0.140625 C 2.09375 0.0117188 2.113281 -0.152344 2.113281 -0.351562 C 2.113281 -0.605469 2.042969 -0.816406 1.898438 -0.984375 C 1.757812 -1.152344 1.570312 -1.234375 1.339844 -1.234375 C 1.195312 -1.234375 1.058594 -1.207031 0.933594 -1.152344 C 0.808594 -1.097656 0.695312 -1.007812 0.597656 -0.882812 L 0.414062 -0.953125 L 0.644531 -2.910156 L 2.589844 -2.910156 L 2.589844 -2.429688 L 0.863281 -2.429688 L 0.722656 -1.277344 C 0.804688 -1.335938 0.914062 -1.394531 1.046875 -1.449219 C 1.179688 -1.507812 1.324219 -1.535156 1.484375 -1.535156 C 1.617188 -1.535156 1.753906 -1.515625 1.894531 -1.472656 C 2.035156 -1.433594 2.167969 -1.367188 2.285156 -1.273438 Z "/>
</g>
<g id="glyph-0-6">
<path d="M 4.25 0 L 2.652344 0 L 2.652344 -0.191406 C 2.695312 -0.195312 2.757812 -0.203125 2.839844 -0.207031 C 2.925781 -0.214844 2.980469 -0.226562 3.011719 -0.242188 C 3.066406 -0.261719 3.105469 -0.296875 3.128906 -0.339844 C 3.15625 -0.386719 3.167969 -0.441406 3.167969 -0.511719 L 3.167969 -1.882812 L 1.359375 -1.882812 L 1.359375 -0.542969 C 1.359375 -0.480469 1.371094 -0.425781 1.390625 -0.382812 C 1.410156 -0.339844 1.453125 -0.300781 1.515625 -0.269531 C 1.542969 -0.253906 1.597656 -0.234375 1.679688 -0.21875 C 1.757812 -0.203125 1.820312 -0.195312 1.863281 -0.191406 L 1.863281 0 L 0.265625 0 L 0.265625 -0.191406 C 0.308594 -0.195312 0.371094 -0.203125 0.453125 -0.207031 C 0.535156 -0.214844 0.59375 -0.226562 0.625 -0.242188 C 0.679688 -0.261719 0.71875 -0.296875 0.742188 -0.339844 C 0.769531 -0.386719 0.78125 -0.441406 0.78125 -0.511719 L 0.78125 -3.289062 C 0.78125 -3.347656 0.769531 -3.402344 0.746094 -3.449219 C 0.722656 -3.496094 0.683594 -3.535156 0.625 -3.5625 C 0.574219 -3.585938 0.515625 -3.605469 0.445312 -3.625 C 0.375 -3.640625 0.316406 -3.652344 0.265625 -3.65625 L 0.265625 -3.847656 L 1.863281 -3.847656 L 1.863281 -3.65625 C 1.8125 -3.65625 1.75 -3.648438 1.679688 -3.632812 C 1.605469 -3.617188 1.550781 -3.605469 1.515625 -3.59375 C 1.453125 -3.570312 1.410156 -3.535156 1.390625 -3.484375 C 1.371094 -3.433594 1.359375 -3.378906 1.359375 -3.316406 L 1.359375 -2.125 L 3.167969 -2.125 L 3.167969 -3.289062 C 3.167969 -3.347656 3.15625 -3.402344 3.132812 -3.449219 C 3.109375 -3.496094 3.070312 -3.535156 3.011719 -3.5625 C 2.960938 -3.585938 2.902344 -3.605469 2.832031 -3.625 C 2.765625 -3.640625 2.703125 -3.652344 2.652344 -3.65625 L 2.652344 -3.847656 L 4.25 -3.847656 L 4.25 -3.65625 C 4.199219 -3.65625 4.136719 -3.648438 4.066406 -3.632812 C 3.992188 -3.617188 3.9375 -3.605469 3.902344 -3.59375 C 3.839844 -3.570312 3.796875 -3.535156 3.777344 -3.484375 C 3.757812 -3.433594 3.746094 -3.378906 3.746094 -3.316406 L 3.746094 -0.542969 C 3.746094 -0.480469 3.757812 -0.425781 3.777344 -0.382812 C 3.796875 -0.339844 3.839844 -0.300781 3.902344 -0.269531 C 3.933594 -0.253906 3.988281 -0.234375 4.066406 -0.21875 C 4.144531 -0.203125 4.207031 -0.195312 4.25 -0.191406 Z "/>
</g>
</g>
</defs>
<g fill="rgb(51.372549%, 75.686275%, 40.392157%)" fill-opacity="1">
<use xlink:href="#glyph-0-0" x="30" y="25.094727"/>
<use xlink:href="#glyph-0-1" x="33" y="25.094727"/>
<use xlink:href="#glyph-0-2" x="34" y="25.094727"/>
<use xlink:href="#glyph-0-1" x="38" y="25.094727"/>
<use xlink:href="#glyph-0-3" x="39" y="25.094727"/>
<use xlink:href="#glyph-0-4" x="42" y="25.094727"/>
<use xlink:href="#glyph-0-3" x="43" y="25.094727"/>
<use xlink:href="#glyph-0-5" x="46" y="25.094727"/>
<use xlink:href="#glyph-0-1" x="49" y="25.094727"/>
<use xlink:href="#glyph-0-6" x="50" y="25.094727"/>
</g>
</svg>
